<?xml version="1.0" encoding="iso-8859-1"?>
<!-- Generator: Adobe Illustrator 18.1.1, SVG Export Plug-In . SVG Version: 6.00 Build 0)  -->
<svg version="1.1" id="Capa_1" xmlns="http://www.w3.org/2000/svg" xmlns:xlink="http://www.w3.org/1999/xlink" x="0px" y="0px"
	 viewBox="0 0 612.074 612.074" style="enable-background:new 0 0 612.074 612.074;" xml:space="preserve">
<g>
	<path d="M306.037,0C136.997,0,0,136.997,0,306.037s136.997,306.037,306.037,306.037s306.037-136.997,306.037-306.037
		S475.077,0,306.037,0z M306.037,582.405c-153.019,0-276.368-124.165-276.368-276.368S153.834,29.669,306.037,29.669
		s276.368,124.165,276.368,276.368S458.24,582.405,306.037,582.405z M440.587,310.042c0,8.011-6.379,14.39-14.39,14.39h-105.77
		v104.955c0,8.011-6.379,14.39-14.39,14.39c-8.011,0-14.39-6.379-14.39-14.39V324.432h-105.77c-8.011,0-14.39-6.379-14.39-14.39
		c0-8.011,6.379-14.39,14.39-14.39h104.955v-105.77c0-8.011,6.379-14.39,14.39-14.39c8.011,0,14.39,6.379,14.39,14.39v104.955
		h104.955C434.208,294.837,440.587,302.032,440.587,310.042z"/>
</g>
<g>
</g>
<g>
</g>
<g>
</g>
<g>
</g>
<g>
</g>
<g>
</g>
<g>
</g>
<g>
</g>
<g>
</g>
<g>
</g>
<g>
</g>
<g>
</g>
<g>
</g>
<g>
</g>
<g>
</g>
</svg>
