<?xml version="1.0" encoding="iso-8859-1"?>
<!-- Generator: Adobe Illustrator 18.1.1, SVG Export Plug-In . SVG Version: 6.00 Build 0)  -->
<svg version="1.1" id="Capa_1" xmlns="http://www.w3.org/2000/svg" xmlns:xlink="http://www.w3.org/1999/xlink" x="0px" y="0px"
	 viewBox="0 0 612 612" style="enable-background:new 0 0 612 612;" xml:space="preserve">
<g>
	<path d="M581.992,410.673c13.115-34.642,20.029-70.851,20.029-107.774c0-165.509-134.717-301.01-301.01-301.01S0,137.39,0,302.899
		c0,91.593,40.771,173.208,105.493,228.662c0.784,0.784,1.568,1.568,3.065,2.281c52.319,43.124,119.321,70.067,192.453,70.067
		c39.275,0,77.765-7.698,113.904-22.31c20.813,17.677,47.757,28.512,77.765,28.512C558.897,610.111,612,556.224,612,490.79
		C612,459.927,600.453,431.415,581.992,410.673z M27.727,302.899c0-150.897,123.17-273.283,273.283-273.283
		s273.283,122.386,273.283,273.283c0,30.008-4.633,60.017-14.612,88.528c-0.784,0-0.784-0.784-1.568-0.784
		c-2.281-1.568-4.633-3.065-6.914-4.633c-0.784-0.784-2.281-1.568-3.065-1.568c-2.281-0.784-3.849-2.281-6.13-3.065
		c-0.784-0.784-2.281-0.784-3.065-1.568c-2.281-0.784-5.417-2.281-7.698-3.065c-0.784,0-1.568-0.784-1.568-0.784
		c-3.065-0.784-6.914-1.568-9.979-2.281c-0.784,0-2.281-0.784-3.065-0.784c-2.281-0.784-5.417-0.784-7.698-1.568
		c-0.784,0-2.281,0-3.065,0c-3.849,0-6.914-0.784-10.763-0.784c-20.813,0-40.059,5.417-56.168,13.828
		c-12.331-11.547-25.375-21.526-40.771-29.224c16.18-20.029,25.375-45.405,25.375-73.132c0-66.218-53.887-119.321-119.321-119.321
		S181.69,215.868,181.69,282.086c0,27.727,9.266,53.103,25.375,73.916C135.501,395.277,113.12,456.862,105.421,493
		C57.736,443.746,27.727,376.744,27.727,302.899z M209.417,282.086c0-50.822,41.556-91.593,91.593-91.593
		s91.593,41.556,91.593,91.593s-41.556,91.593-91.593,91.593S209.417,332.908,209.417,282.086z M301.011,575.398
		c-64.65,0-123.954-22.31-170.927-60.017c1.568-22.31,13.828-97.01,97.011-139.35c20.029,16.18,46.189,25.375,73.916,25.375
		s53.887-9.979,73.916-25.375c13.828,6.914,26.943,15.396,38.491,25.375c-24.662,21.526-40.059,53.887-40.059,88.528
		c0,3.849,0,7.698,0.784,10.763c0,0.784,0,2.281,0,3.065c0,3.065,0.784,5.417,1.568,8.482c0,0.784,0,1.568,0.784,2.281
		c1.568,7.698,3.849,14.612,6.914,21.526l0,0c1.568,3.065,3.065,6.914,4.633,9.979c0,0,0,0.784,0.784,0.784
		c1.568,3.065,3.849,6.13,5.417,9.266c0,0,0,0,0,0.784c0.784,0.784,0.784,1.568,1.568,1.568
		C364.876,569.981,333.371,575.398,301.011,575.398z M492.679,582.312c-43.908,0-80.83-30.792-89.312-72.348v-0.784
		c-0.784-2.281-0.784-4.633-0.784-7.698c0-0.784,0-0.784,0-1.568c0-3.065-0.784-6.13-0.784-9.266
		c0-50.822,40.771-91.593,91.593-91.593c3.065,0,6.13,0,9.266,0.784c1.568,0,2.281,0,3.849,0.784c1.568,0,3.849,0.784,5.417,0.784
		s3.065,0.784,4.633,0.784c1.568,0,3.065,0.784,3.849,0.784c1.568,0.784,3.065,0.784,4.633,1.568
		c1.568,0.784,2.281,0.784,3.849,1.568c1.568,0.784,3.065,1.568,4.633,2.281c0.784,0.784,2.281,0.784,3.065,1.568
		c1.568,0.784,3.065,2.281,5.417,3.065c0.784,0.784,1.568,0.784,2.281,1.568c1.568,1.568,3.849,2.281,5.417,3.849
		c0.784,0.784,0.784,0.784,1.568,1.568c1.568,1.568,3.849,3.065,5.417,4.633c18.461,16.964,29.224,40.772,29.224,67.002
		C584.273,540.757,543.501,582.312,492.679,582.312z M545.069,489.935c0,7.698-6.13,13.828-13.828,13.828h-24.662v24.662
		c0,7.698-6.13,13.828-13.828,13.828s-13.828-6.13-13.828-13.828v-24.662H454.26c-7.698,0-13.828-6.13-13.828-13.828
		c0-7.698,6.13-13.828,13.828-13.828h24.662v-24.662c0-7.698,6.13-13.828,13.828-13.828s13.828,6.13,13.828,13.828v24.662h24.662
		C538.868,476.107,545.069,482.237,545.069,489.935z"/>
</g>
<g>
</g>
<g>
</g>
<g>
</g>
<g>
</g>
<g>
</g>
<g>
</g>
<g>
</g>
<g>
</g>
<g>
</g>
<g>
</g>
<g>
</g>
<g>
</g>
<g>
</g>
<g>
</g>
<g>
</g>
</svg>
