<?xml version="1.0" encoding="iso-8859-1"?>
<!-- Generator: Adobe Illustrator 18.1.1, SVG Export Plug-In . SVG Version: 6.00 Build 0)  -->
<svg version="1.1" id="Capa_1" xmlns="http://www.w3.org/2000/svg" xmlns:xlink="http://www.w3.org/1999/xlink" x="0px" y="0px"
	 viewBox="0 0 612.077 612.077" style="enable-background:new 0 0 612.077 612.077;" xml:space="preserve">
<g>
	<path d="M306.037,0.001C136.997,0.001,0,136.999,0,306.039s137.813,306.037,306.037,306.037s306.037-136.997,306.037-306.037
		C612.816,136.999,475.077,0.001,306.037,0.001z M306.037,582.332c-152.203,0-276.368-124.165-276.368-276.368
		S153.834,29.596,306.037,29.596s276.368,124.165,276.368,276.368S459.056,582.332,306.037,582.332z M462.245,305.964
		c0,8.011-6.379,14.39-14.39,14.39H213.099l83.296,83.296c5.637,5.637,5.637,15.205,0,20.843c-3.189,3.189-6.379,4.005-10.384,4.005
		c-4.005,0-7.195-1.632-10.384-4.005l-108.96-108.07c-0.816-0.816-1.632-1.632-1.632-2.374l-0.816-0.816
		c0-0.816-0.816-0.816-0.816-1.632c0-0.816,0-0.816-0.816-1.632c0-0.816,0-0.816,0-1.632c0-1.632,0-4.005,0-5.637
		c0-0.816,0-0.816,0-1.632s0-0.816,0.816-1.632c0-0.816,0.816-0.816,0.816-1.632c0,0,0-0.816,0.816-0.816
		c0.816-0.816,0.816-1.632,1.632-2.374L276.442,184.84c5.637-5.637,15.205-5.637,20.843,0c5.637,5.637,5.637,15.205,0,20.843
		l-84.186,85.076h234.683C455.792,290.759,462.245,297.954,462.245,305.964z"/>
</g>
<g>
</g>
<g>
</g>
<g>
</g>
<g>
</g>
<g>
</g>
<g>
</g>
<g>
</g>
<g>
</g>
<g>
</g>
<g>
</g>
<g>
</g>
<g>
</g>
<g>
</g>
<g>
</g>
<g>
</g>
</svg>
