<?xml version="1.0" encoding="iso-8859-1"?>
<!-- Generator: Adobe Illustrator 18.1.1, SVG Export Plug-In . SVG Version: 6.00 Build 0)  -->
<svg version="1.1" id="Capa_1" xmlns="http://www.w3.org/2000/svg" xmlns:xlink="http://www.w3.org/1999/xlink" x="0px" y="0px"
	 viewBox="0 0 612.445 612.445" style="enable-background:new 0 0 612.445 612.445;" xml:space="preserve">
<g>
	<path d="M522.642,89.804C464.9,32.062,388.011,0,306.223,0S147.545,32.062,89.804,89.804
		c-119.416,119.416-119.416,313.422,0,432.838c57.741,57.741,134.631,89.804,216.419,89.804s158.678-32.062,216.419-89.804
		C642.058,403.225,642.058,209.22,522.642,89.804z M501.787,501.787c-52.101,52.101-121.791,80.972-195.564,80.972
		s-143.463-28.871-195.564-80.972S29.687,379.995,29.687,306.223s28.871-143.463,80.972-195.564s121.866-80.972,195.564-80.972
		s143.463,28.871,195.564,80.972s80.972,121.866,80.972,195.564S553.887,449.686,501.787,501.787z M399.218,234.899l-74.515,74.515
		l74.515,74.515c5.641,5.641,5.641,15.215,0,20.855c-3.191,3.191-6.383,4.008-10.391,4.008c-4.008,0-7.199-1.633-10.39-4.008
		l-74.589-74.515l-74.589,74.515c-3.191,3.191-6.383,4.008-10.39,4.008s-7.199-1.633-10.39-4.008
		c-5.641-5.641-5.641-15.215,0-20.855l74.515-74.515l-74.515-74.515c-5.641-5.641-5.641-15.215,0-20.855
		c5.641-5.641,15.215-5.641,20.855,0l74.515,74.515l74.515-74.515c5.641-5.641,15.215-5.641,20.855,0
		C404.858,219.685,404.858,228.442,399.218,234.899z"/>
</g>
<g>
</g>
<g>
</g>
<g>
</g>
<g>
</g>
<g>
</g>
<g>
</g>
<g>
</g>
<g>
</g>
<g>
</g>
<g>
</g>
<g>
</g>
<g>
</g>
<g>
</g>
<g>
</g>
<g>
</g>
</svg>
