<?xml version="1.0" encoding="iso-8859-1"?>
<!-- Generator: Adobe Illustrator 18.1.1, SVG Export Plug-In . SVG Version: 6.00 Build 0)  -->
<svg version="1.1" id="Capa_1" xmlns="http://www.w3.org/2000/svg" xmlns:xlink="http://www.w3.org/1999/xlink" x="0px" y="0px"
	 viewBox="0 0 25.851 25.851" style="enable-background:new 0 0 25.851 25.851;" xml:space="preserve">
<g>
	<path style="fill:#030104;" d="M23.167,4.481l-4.715-1.248v2.069l4.202,1.112c0.534,0.142,0.852,0.691,0.711,1.223l-4.092,15.469
		c-0.142,0.531-0.691,0.852-1.225,0.711l-3.227-0.854C14.698,22.975,14.579,23,14.452,23h-7.09c0.162,0.076,0.33,0.144,0.509,0.191
		l9.667,2.559c1.602,0.425,3.244-0.531,3.668-2.133L25.299,8.15C25.722,6.549,24.768,4.905,23.167,4.481z"/>
	<path style="fill:#030104;" d="M14.452,0h-11c-1.656,0-3,1.344-3,3v16c0,1.656,1.344,3,3,3h11c1.656,0,3-1.344,3-3V3
		C17.452,1.344,16.108,0,14.452,0z M15.452,19c0,0.551-0.449,1-1,1h-11c-0.551,0-1-0.449-1-1V3c0-0.551,0.449-1,1-1h11
		c0.551,0,1,0.449,1,1V19z M13.341,11.414c0,1.385-0.927,2.265-2.251,2.268c-0.685,0-1.378-0.463-1.771-0.847
		c0,0,0.368,1.703,1.039,2.991c0.087,0.167-2.86,0.171-2.781,0.002c0.653-1.396,1.019-2.993,1.019-2.993
		c-0.394,0.366-1.15,0.852-1.783,0.853c-1.321,0.001-2.254-0.877-2.256-2.26C4.555,9.11,8.929,6.071,8.929,6.071h0.024
		C8.953,6.071,13.337,9.098,13.341,11.414z M13.396,3.136c-0.017-0.042-0.032-0.076-0.052-0.1S13.283,3,13.221,3h-0.569
		c-0.061,0-0.102,0.012-0.122,0.034c-0.021,0.021-0.039,0.054-0.054,0.096l-0.87,2.753C11.589,5.935,11.588,5.966,11.6,5.98
		S11.636,6,11.669,6h0.5c0.044,0,0.076-0.011,0.101-0.028c0.023-0.018,0.043-0.049,0.058-0.098l0.162-0.551h0.898l0.149,0.537
		c0.015,0.047,0.03,0.084,0.048,0.105C13.602,5.988,13.638,6,13.689,6h0.56c0.033,0,0.053-0.011,0.059-0.028s0.006-0.043-0.005-0.08
		L13.396,3.136z M12.643,4.778l0.135-0.504l0.149-0.548h0.021l0.146,0.552l0.135,0.5H12.643z M5.689,16
		c-0.052,0-0.087,0.012-0.104,0.034c-0.018,0.022-0.033,0.059-0.048,0.106l-0.149,0.537H4.489l-0.162-0.551
		c-0.015-0.049-0.034-0.08-0.058-0.098C4.245,16.011,4.213,16,4.169,16h-0.5c-0.033,0-0.057,0.007-0.068,0.021
		s-0.011,0.045,0.006,0.097l0.87,2.753c0.015,0.042,0.033,0.074,0.054,0.096C4.551,18.988,4.592,19,4.652,19H5.22
		c0.063,0,0.104-0.012,0.124-0.036c0.02-0.023,0.035-0.058,0.052-0.1l0.906-2.756c0.011-0.037,0.011-0.063,0.005-0.08
		S6.282,16,6.249,16H5.689z M5.095,17.722l-0.146,0.552H4.928l-0.149-0.548l-0.135-0.504H5.23L5.095,17.722z"/>
	<path style="fill:#030104;" d="M21.344,7.259c-0.004-0.045-0.012-0.081-0.023-0.109c-0.014-0.029-0.051-0.051-0.111-0.066
		l-0.549-0.148c-0.057-0.016-0.1-0.016-0.125,0c-0.027,0.017-0.053,0.043-0.077,0.079l-1.558,2.43
		C18.87,9.492,18.862,9.52,18.87,9.538c0.007,0.016,0.027,0.028,0.06,0.037l0.483,0.131c0.042,0.011,0.076,0.01,0.104-0.002
		c0.027-0.01,0.055-0.035,0.082-0.078l0.3-0.49l0.867,0.234l0.005,0.558c0,0.049,0.007,0.089,0.018,0.114
		c0.012,0.027,0.042,0.047,0.093,0.061l0.54,0.146c0.032,0.009,0.054,0.005,0.064-0.012c0.01-0.015,0.016-0.04,0.016-0.078
		L21.344,7.259z M20.189,8.649l0.262-0.453l0.287-0.489l0.02,0.006l-0.003,0.57l-0.001,0.519L20.189,8.649z"/>
</g>
<g>
</g>
<g>
</g>
<g>
</g>
<g>
</g>
<g>
</g>
<g>
</g>
<g>
</g>
<g>
</g>
<g>
</g>
<g>
</g>
<g>
</g>
<g>
</g>
<g>
</g>
<g>
</g>
<g>
</g>
</svg>
