<?xml version="1.0" encoding="iso-8859-1"?>
<!-- Generator: Adobe Illustrator 18.1.1, SVG Export Plug-In . SVG Version: 6.00 Build 0)  -->
<svg version="1.1" id="Capa_1" xmlns="http://www.w3.org/2000/svg" xmlns:xlink="http://www.w3.org/1999/xlink" x="0px" y="0px"
	 viewBox="0 0 612 612" style="enable-background:new 0 0 612 612;" xml:space="preserve">
<g>
	<path d="M596.603,132.424l-59.128-59.129c-9.445-9.445-22.302-15.397-36.826-15.397c-14.604,0-26.588,5.159-36.826,15.397
		L225.403,312.429l-77.145-77.145c-11.111-11.111-25.715-17.143-41.985-17.143c-15.397,0-30.874,6.032-41.985,17.143l-47.144,47.144
		C6.032,293.539,0,308.143,0,324.413s6.032,30.874,17.143,41.985l172.306,172.306c9.445,9.445,22.302,15.397,36.826,15.397
		c14.604,0,26.588-5.159,36.826-15.397l333.501-333.421c9.445-9.445,15.397-22.302,15.397-36.826
		C612,153.853,605.968,141.789,596.603,132.424z M573.428,182.981L240.879,516.402c-7.699,7.699-20.556,7.699-28.255,0
		L40.239,343.223c-5.159-5.159-7.699-11.984-7.699-19.683c0-7.699,2.54-14.604,7.699-19.683l47.144-47.144
		c5.159-5.159,11.984-7.699,19.683-7.699s14.604,2.54,19.683,7.699l86.59,89.129c6.032,6.032,16.27,6.032,22.302,0L485.965,95.518
		c7.699-7.699,20.556-7.699,28.255,0l59.129,59.129c3.413,3.413,6.032,8.572,6.032,13.73
		C579.46,174.409,577.713,179.568,573.428,182.981z"/>
</g>
<g>
</g>
<g>
</g>
<g>
</g>
<g>
</g>
<g>
</g>
<g>
</g>
<g>
</g>
<g>
</g>
<g>
</g>
<g>
</g>
<g>
</g>
<g>
</g>
<g>
</g>
<g>
</g>
<g>
</g>
</svg>
