<?xml version="1.0" encoding="iso-8859-1"?>
<!-- Generator: Adobe Illustrator 18.1.1, SVG Export Plug-In . SVG Version: 6.00 Build 0)  -->
<svg version="1.1" id="Capa_1" xmlns="http://www.w3.org/2000/svg" xmlns:xlink="http://www.w3.org/1999/xlink" x="0px" y="0px"
	 viewBox="0 0 612 612" style="enable-background:new 0 0 612 612;" xml:space="preserve">
<g>
	<path d="M306,0C137.038,0,0,137.038,0,306s137.117,306,306,306s306-137.117,306-306S474.963,0,306,0z M306,580.953
		c-151.723,0-274.075-123.23-274.075-274.075c0-151.723,123.23-274.075,274.075-274.075c151.723,0,274.075,123.23,274.075,274.075
		S457.723,580.953,306,580.953z M294.826,93.939c-2.554-2.554-4.31-6.864-4.31-11.174s1.756-8.62,4.31-11.174
		c6.066-6.066,16.362-6.066,22.427,0c2.554,2.554,4.31,6.864,4.31,11.174s-1.756,8.62-4.31,11.174
		c-2.554,2.554-6.864,4.31-11.174,4.31C301.69,99.127,297.38,97.371,294.826,93.939z M205.197,101.681
		c2.554,2.554,4.31,6.864,4.31,11.174c0,4.31-1.756,8.62-4.31,11.174s-6.864,4.31-11.174,4.31s-8.62-1.756-11.174-4.31
		c-2.554-2.554-4.31-6.864-4.31-11.174c0-4.31,1.756-8.62,4.31-11.174C188.836,95.615,199.132,95.615,205.197,101.681z
		 M123.31,183.568c2.554,2.554,4.31,6.864,4.31,11.174c0,4.31-1.756,8.62-4.31,11.174c-3.432,2.554-6.864,4.31-11.174,4.31
		c-4.31,0-8.62-1.756-11.174-4.31c-2.554-2.554-4.31-6.864-4.31-11.174c0-4.31,1.756-8.62,4.31-11.174
		C106.948,177.502,117.244,177.502,123.31,183.568z M98.329,306.798c0,4.31-1.756,8.62-4.31,11.174
		c-3.432,2.554-6.864,4.31-11.174,4.31c-4.31,0-7.742-1.756-11.174-4.31c-2.554-3.432-4.31-6.864-4.31-11.174
		s1.756-8.62,4.31-11.174c6.066-6.066,16.362-6.066,22.427,0C96.573,298.178,98.329,302.488,98.329,306.798z M123.31,406.803
		c2.554,2.554,4.31,6.864,4.31,11.174c0,4.31-1.756,8.62-4.31,11.174c-2.554,2.554-6.864,4.31-11.174,4.31
		c-4.31,0-8.62-1.756-11.174-4.31c-2.554-2.554-4.31-6.864-4.31-11.174c0-4.31,1.756-8.62,4.31-11.174
		C106.948,401.615,117.244,401.615,123.31,406.803z M205.197,488.69c2.554,2.554,4.31,6.864,4.31,11.174s-1.756,8.62-4.31,11.174
		s-6.864,4.31-11.174,4.31s-8.62-1.756-11.174-4.31s-4.31-6.864-4.31-11.174s1.756-8.62,4.31-11.174
		C188.836,482.704,199.132,483.502,205.197,488.69z M317.254,518.859c2.554,2.554,4.31,6.864,4.31,11.174s-1.756,7.742-4.31,11.174
		c-2.554,3.432-6.864,4.31-11.174,4.31c-4.31,0-8.62-1.756-11.174-4.31c-2.554-2.554-4.31-6.864-4.31-11.174s1.756-8.62,4.31-11.174
		C300.892,512.873,311.188,512.873,317.254,518.859z M429.31,488.69c2.554,3.432,4.31,6.864,4.31,11.174s-1.756,8.62-4.31,11.174
		c-3.432,2.554-6.864,4.31-11.174,4.31s-7.742-1.756-11.174-4.31c-2.554-3.432-4.31-6.864-4.31-11.174s1.756-8.62,4.31-11.174
		C412.948,482.704,423.244,482.704,429.31,488.69z M511.197,406.803c2.554,3.432,4.31,6.864,4.31,11.174
		c0,4.31-1.756,8.62-4.31,11.174c-2.554,2.554-6.864,4.31-11.174,4.31s-8.62-1.756-11.174-4.31c-2.554-2.554-4.31-6.864-4.31-11.174
		c0-4.31,1.756-8.62,4.31-11.174C494.836,401.615,505.132,401.615,511.197,406.803z M545.676,306.798c0,4.31-1.756,8.62-4.31,11.174
		c-2.554,2.554-6.864,4.31-11.174,4.31s-8.62-1.756-11.174-4.31c-2.554-2.554-4.31-6.864-4.31-11.174s1.756-8.62,4.31-11.174
		c6.066-6.066,16.362-6.066,22.427,0C543.92,298.178,545.676,302.488,545.676,306.798z M488.77,205.995
		c-2.554-2.554-4.31-6.864-4.31-11.174c0-4.31,1.756-8.62,4.31-11.174c6.066-6.066,16.362-6.066,22.427,0
		c2.554,3.432,4.31,6.864,4.31,11.174c0,4.31-1.756,8.62-4.31,11.174c-2.554,2.554-6.864,4.31-11.174,4.31
		C495.634,211.183,491.324,209.427,488.77,205.995z M429.31,101.681c2.554,2.554,4.31,6.864,4.31,11.174
		c0,4.31-1.756,8.62-4.31,11.174c-3.432,2.554-6.864,4.31-11.174,4.31s-7.742-1.756-11.174-4.31
		c-2.554-2.554-4.31-6.864-4.31-11.174c0-4.31,1.756-8.62,4.31-11.174C412.948,95.615,423.244,95.615,429.31,101.681z
		 M289.639,306.798V162.019c0-8.62,6.864-15.484,15.484-15.484c8.62,0,15.563,6.864,15.563,15.484v128.418h87.075
		c8.62,0,15.484,6.864,15.484,15.484c0,8.62-6.864,15.484-15.484,15.484H306C297.38,322.362,289.639,315.418,289.639,306.798z"/>
</g>
<g>
</g>
<g>
</g>
<g>
</g>
<g>
</g>
<g>
</g>
<g>
</g>
<g>
</g>
<g>
</g>
<g>
</g>
<g>
</g>
<g>
</g>
<g>
</g>
<g>
</g>
<g>
</g>
<g>
</g>
</svg>
