<?xml version="1.0" encoding="iso-8859-1"?>
<!-- Generator: Adobe Illustrator 18.1.1, SVG Export Plug-In . SVG Version: 6.00 Build 0)  -->
<svg version="1.1" id="Capa_1" xmlns="http://www.w3.org/2000/svg" xmlns:xlink="http://www.w3.org/1999/xlink" x="0px" y="0px"
	 viewBox="0 0 611.95 611.95" style="enable-background:new 0 0 611.95 611.95;" xml:space="preserve">
<g>
	<path d="M560.348,18.015h-86.137c-29.548,0-52.488,23.775-52.488,52.488v2.431l-27.041-27.877
		c-6.532-6.532-31.979-28.712-76.263-28.712H124.724c-6.532,0-39.347,1.671-62.362,25.446l-34.485,36.08
		C19.673,86.91,0,112.356,0,150.032v155.032c0,0.836,0,0.836,0,1.671c0.836,12.305,5.773,22.94,13.976,31.979l22.18,22.94
		c17.243,18.078,35.245,21.344,45.955,22.18h89.404c0,0.836,0,1.671,0,3.266v180.554c0,0.836,0,0.836,0,1.671
		c1.671,15.572,13.141,26.282,29.548,26.282h54.918c18.838,0,28.712-15.572,31.143-25.446l31.143-113.179l102.544-106.646
		c3.266,26.282,25.446,45.955,52.488,45.955h86.137c29.548,0,52.487-23.775,52.487-52.487V73.01
		C612.836,41.866,589.896,18.015,560.348,18.015z M294.568,437.232c-1.671,1.671-3.266,4.102-4.102,6.532l-31.979,116.521
		c0,0.836-1.671,2.431-1.671,3.266h-54.159V385.58c0-21.344-13.141-31.143-24.611-33.65c-0.836,0-1.671,0-2.431,0h-91.91
		c-4.937,0-15.572-2.431-24.611-12.305l-22.94-22.94c-3.266-3.266-5.773-8.204-5.773-13.141V150.108
		c0-27.877,15.572-46.791,19.673-51.652l33.65-35.245c14.736-15.572,37.752-16.407,40.182-16.407h193.619
		c33.65,0,51.652,16.407,54.994,19.673l48.386,50.892v188.682L294.568,437.232z M582.528,342.056c0,12.305-9.875,22.18-22.18,22.18
		h-86.137c-12.305,0-22.18-9.875-22.18-22.18v-29.548c0,0,0,0,0-0.836l0.836-199.316c0-1.671,0-4.102-0.836-5.773V71.338
		c0-12.305,9.875-22.18,22.18-22.18h86.137c12.305,0,22.18,9.875,22.18,22.18V342.056z M532.471,300.278
		c0,9.039-7.368,16.407-16.407,16.407s-16.407-7.368-16.407-16.407s7.368-16.407,16.407-16.407S532.471,291.239,532.471,300.278z"/>
</g>
<g>
</g>
<g>
</g>
<g>
</g>
<g>
</g>
<g>
</g>
<g>
</g>
<g>
</g>
<g>
</g>
<g>
</g>
<g>
</g>
<g>
</g>
<g>
</g>
<g>
</g>
<g>
</g>
<g>
</g>
</svg>
