<?xml version="1.0" encoding="iso-8859-1"?>
<!-- Generator: Adobe Illustrator 18.1.1, SVG Export Plug-In . SVG Version: 6.00 Build 0)  -->
<svg version="1.1" id="Capa_1" xmlns="http://www.w3.org/2000/svg" xmlns:xlink="http://www.w3.org/1999/xlink" x="0px" y="0px"
	 viewBox="0 0 625.677 625.677" style="enable-background:new 0 0 625.677 625.677;" xml:space="preserve">
<g>
	<path d="M574.833,458.66H331.698c1.869-0.934,2.719-1.869,3.653-2.719l121.143-125.73c9.175-9.175,9.175-18.35,7.306-23.872
		c-0.934-3.653-5.522-11.893-17.415-13.762c-0.934,0-1.869,0-2.718,0h-51.481V16.481C392.185,7.306,384.879,0,375.704,0h-125.73
		c-9.175,0-16.481,7.306-16.481,16.481v276.182h-50.462c-0.934,0-0.934,0-1.869,0c-13.762,1.869-18.35,10.109-19.284,13.762
		c-1.869,4.587-2.719,13.762,6.456,23.872l120.208,124.711c0.934,0.934,2.718,2.719,3.653,3.653h-242.2
		c-23.872,0-43.156,19.284-43.156,43.156v80.705c0,23.872,19.284,43.156,43.156,43.156h525.688
		c23.872,0,43.156-19.284,43.156-43.156v-80.705C618.839,478.879,598.62,458.66,574.833,458.66z M212.424,327.493h37.634
		c9.175,0,16.481-7.306,16.481-16.481V33.896h90.815v276.182c0,9.175,7.306,16.481,16.481,16.481h37.634l-99.055,103.727
		L212.424,327.493z M584.858,583.456c0,5.522-4.587,9.175-9.175,9.175H49.995c-5.522,0-9.175-4.587-9.175-9.175v-80.705
		c0-5.522,4.587-9.175,9.175-9.175h525.688c5.522,0,9.175,4.587,9.175,9.175V583.456z"/>
</g>
<g>
</g>
<g>
</g>
<g>
</g>
<g>
</g>
<g>
</g>
<g>
</g>
<g>
</g>
<g>
</g>
<g>
</g>
<g>
</g>
<g>
</g>
<g>
</g>
<g>
</g>
<g>
</g>
<g>
</g>
</svg>
