<?xml version="1.0" encoding="iso-8859-1"?>
<!-- Generator: Adobe Illustrator 18.1.1, SVG Export Plug-In . SVG Version: 6.00 Build 0)  -->
<svg version="1.1" id="Capa_1" xmlns="http://www.w3.org/2000/svg" xmlns:xlink="http://www.w3.org/1999/xlink" x="0px" y="0px"
	 viewBox="0 0 612.074 612.074" style="enable-background:new 0 0 612.074 612.074;" xml:space="preserve">
<g>
	<path d="M306.037,0C136.997,0,0,136.997,0,306.037s136.997,306.037,306.037,306.037s306.037-136.997,306.037-306.037
		S475.077,0,306.037,0z M306.037,582.405c-152.203,0-276.368-124.165-276.368-276.368S153.834,29.669,306.037,29.669
		s276.368,124.165,276.368,276.368S458.24,582.405,306.037,582.405z M425.381,315.68c5.637,5.637,5.637,15.205,0,20.843
		l-108.96,109.702c-0.816,0.816-1.632,1.632-2.374,1.632l-0.816,0.816c-0.816,0-0.816,0.816-1.632,0.816
		c-0.816,0-0.816,0-1.632,0.816c-0.816,0-0.816,0-1.632,0c-0.816,0-1.632,0-3.189,0c-0.816,0-1.632,0-3.189,0
		c-0.816,0-0.816,0-1.632,0c-0.816,0-0.816,0-1.632-0.816c-0.816,0-0.816-0.816-1.632-0.816c0,0-0.816,0-0.816-0.816
		c-0.816-0.816-1.632-0.816-2.374-1.632L185.877,335.706c-5.637-5.637-5.637-15.205,0-20.843s15.205-5.637,20.843,0l84.928,84.928
		V165.035c0-8.011,6.379-14.39,14.39-14.39s14.39,6.379,14.39,14.39v234.683l83.37-83.296
		C410.176,310.042,419.818,310.042,425.381,315.68z"/>
</g>
<g>
</g>
<g>
</g>
<g>
</g>
<g>
</g>
<g>
</g>
<g>
</g>
<g>
</g>
<g>
</g>
<g>
</g>
<g>
</g>
<g>
</g>
<g>
</g>
<g>
</g>
<g>
</g>
<g>
</g>
</svg>
