<?xml version="1.0" encoding="iso-8859-1"?>
<!-- Generator: Adobe Illustrator 18.1.1, SVG Export Plug-In . SVG Version: 6.00 Build 0)  -->
<svg version="1.1" id="Capa_1" xmlns="http://www.w3.org/2000/svg" xmlns:xlink="http://www.w3.org/1999/xlink" x="0px" y="0px"
	 viewBox="0 0 613.95 613.95" style="enable-background:new 0 0 613.95 613.95;" xml:space="preserve">
<g>
	<path d="M597.972,96.853l-81.725-81.725C506.11,4.991,493.477,0,480.064,0s-26.982,5.069-36.184,15.128l-54.743,54.743
		c-10.917-3.353-23.55-0.858-31.972,6.706l-23.55,23.55c-9.28,9.28-10.917,23.55-5.927,35.404L63.174,400.046
		c-0.858,0.858-1.716,1.716-1.716,2.495c0,0,0,0,0,0.858c-0.858,0.858-0.858,1.716-1.716,2.495l0,0L12.642,549.147l0,0
		l-5.069,15.128l-5.069,15.128c0,0.858,0,1.716-0.858,1.716c-1.716,8.422,0,15.128,2.495,19.339
		c0.858,1.716,1.716,3.353,2.495,4.211c5.069,5.927,12.633,9.28,21.055,9.28l0,0c0.858,0,1.716,0,2.495,0c1.716,0,2.495,0,3.353,0
		l0,0l0,0c0.858,0,1.716,0,1.716-0.858l21.055-6.706l151.596-49.674l0,0c2.495-0.858,4.211-1.716,5.927-3.353l265.294-265.294
		c3.353,1.716,6.706,1.716,10.917,1.716c8.422,0,15.986-3.353,21.913-9.28l23.55-23.55c9.28-9.28,10.917-21.913,6.706-32.83
		l54.743-54.743C618.169,149.959,618.169,117.05,597.972,96.853z M204.633,519.67l-42.89-42.968l251.803-252.661l42.968,42.968
		L204.633,519.67z M391.633,202.128L139.83,454.789l-42.968-43.748l251.803-251.803L391.633,202.128z M66.527,570.202
		l-21.055-21.055l36.184-109.486l47.179,47.179l0,0l0,0l47.179,47.179L66.527,570.202z M496.05,254.376
		c-0.858-0.858-0.858-1.716-1.716-1.716L363.793,121.261c-1.716-1.716-2.495-2.495-4.211-3.353l18.56-19.339l1.716,1.716l0,0
		l132.257,132.257c0.858,0.858,1.716,1.716,2.495,1.716L496.05,254.376z M576.059,148.243l-53.028,53.028L412.688,90.147
		l53.028-53.028c7.564-7.564,21.055-7.564,28.619,0l81.725,81.647C583.623,127.188,583.623,139.821,576.059,148.243z"/>
</g>
<g>
</g>
<g>
</g>
<g>
</g>
<g>
</g>
<g>
</g>
<g>
</g>
<g>
</g>
<g>
</g>
<g>
</g>
<g>
</g>
<g>
</g>
<g>
</g>
<g>
</g>
<g>
</g>
<g>
</g>
</svg>
