<?xml version="1.0" encoding="iso-8859-1"?>
<!-- Generator: Adobe Illustrator 18.1.1, SVG Export Plug-In . SVG Version: 6.00 Build 0)  -->
<svg version="1.1" id="Capa_1" xmlns="http://www.w3.org/2000/svg" xmlns:xlink="http://www.w3.org/1999/xlink" x="0px" y="0px"
	 viewBox="0 0 613.4 613.4" style="enable-background:new 0 0 613.4 613.4;" xml:space="preserve">
<g>
	<path d="M473.635,306.75l115.581-115.581c31.295-31.295,31.295-82.087,0-114.481l-52.891-52.891C521.227,8.699,500.731,0,479.134,0
		c-21.596,0-42.093,8.599-57.191,23.796L306.263,140.477L190.781,24.896C175.684,9.798,155.187,1.1,133.591,1.1
		c-21.596,0-42.093,8.599-57.191,23.796L23.409,77.787C9.411,91.785,0.712,112.382,0.712,133.978s8.599,42.093,23.796,57.191
		L139.99,306.75L24.509,422.331C9.411,437.428,0.712,457.925,0.712,479.522c0,21.596,8.599,42.093,23.796,57.191L77.4,589.604
		c15.098,15.098,35.594,23.796,57.191,23.796c21.596,0,42.093-8.599,57.191-23.796l115.581-115.581l114.481,114.481
		c15.098,15.098,35.594,23.796,57.191,23.796c21.596,0,42.093-8.599,57.191-23.796l52.891-52.891
		c31.295-31.295,31.295-82.087,0-114.481L473.635,306.75z M560.021,507.617l-51.792,52.891c-15.098,15.098-42.093,15.098-57.191,0
		L321.46,430.93c-4.299-4.299-8.599-5.399-13.998-5.399c-5.399,0-9.698,2.2-13.998,5.399L163.786,560.508
		c-15.098,15.098-42.093,15.098-57.191,0l-52.891-52.891c-7.599-7.599-11.898-18.397-11.898-29.195s4.299-21.596,11.898-29.195
		l129.479-129.479c7.599-7.599,7.599-20.497,0-28.095L53.604,162.074c-8.599-6.499-12.998-17.297-12.998-28.095
		c0-10.798,4.299-21.596,11.898-29.195l52.891-52.891c15.098-15.098,42.093-15.098,57.191,0L292.165,181.47
		c3.199,3.199,8.599,5.399,13.998,5.399c5.399,0,10.798-2.2,13.998-5.399L449.739,51.892c15.098-15.098,42.093-15.098,57.191,0
		l53.091,52.891c16.197,16.197,16.197,42.093,0,57.191L430.442,291.552c-3.199,3.199-5.399,8.599-5.399,13.998
		s2.2,10.798,5.399,13.998l129.579,129.779C576.218,466.524,576.218,492.52,560.021,507.617z"/>
</g>
<g>
</g>
<g>
</g>
<g>
</g>
<g>
</g>
<g>
</g>
<g>
</g>
<g>
</g>
<g>
</g>
<g>
</g>
<g>
</g>
<g>
</g>
<g>
</g>
<g>
</g>
<g>
</g>
<g>
</g>
</svg>
