<?xml version="1.0" encoding="iso-8859-1"?>
<!-- Generator: Adobe Illustrator 18.1.1, SVG Export Plug-In . SVG Version: 6.00 Build 0)  -->
<svg version="1.1" id="Capa_1" xmlns="http://www.w3.org/2000/svg" xmlns:xlink="http://www.w3.org/1999/xlink" x="0px" y="0px"
	 viewBox="0 0 611.931 611.931" style="enable-background:new 0 0 611.931 611.931;" xml:space="preserve">
<g>
	<path d="M183.188,466.83c33.382,0,60.857-27.475,60.857-60.857c0-14.836-5.22-28.162-14.081-39.289l111.273-149.119
		c7.418,2.954,15.592,5.22,24.453,5.22c14.836,0,28.162-5.22,38.602-14.081l87.507,66.764c-3.709,7.418-5.22,16.347-5.22,25.208
		c0,33.382,27.475,60.857,60.857,60.857c33.382,0,60.857-27.475,60.857-60.857s-27.475-60.857-60.857-60.857
		c-14.836,0-28.162,5.22-38.602,14.081l-87.507-66.764c3.709-7.418,5.22-16.347,5.22-25.208c0-33.382-27.475-60.857-60.857-60.857
		s-60.857,27.475-60.857,60.857c0,14.836,5.22,28.162,14.081,39.289L207.64,351.093c-7.418-2.954-15.592-5.22-24.452-5.22
		c-33.382,0-60.857,27.475-60.857,60.857C122.331,439.424,149.806,466.83,183.188,466.83z M579.305,301.432
		c0,18.545-14.836,33.382-33.382,33.382s-33.382-14.836-33.382-33.382c0-18.545,14.836-33.382,33.382-33.382
		S579.305,282.887,579.305,301.432z M365.62,129.303c18.545,0,33.382,14.836,33.382,33.382s-14.836,33.382-33.382,33.382
		c-18.545,0-33.382-14.836-33.382-33.382C332.238,144.139,347.075,129.303,365.62,129.303z M183.188,373.347
		c18.545,0,33.382,14.836,33.382,33.382c0,18.545-14.836,33.382-33.382,33.382s-33.382-14.836-33.382-33.382
		C149.806,388.184,164.642,373.347,183.188,373.347z M611.931,558.115c0,7.418-5.907,13.325-13.325,13.325H83.729
		c-0.756,0-1.511,0-2.198,0c-5.907,0-17.034-1.511-25.964-9.616c-8.929-8.174-13.325-20.057-13.325-35.58v-20.743H13.325
		C5.907,505.501,0,499.594,0,492.176s5.907-13.325,13.325-13.325h28.917v-60.101H13.325C5.907,418.749,0,412.842,0,405.424
		c0-7.418,5.907-13.325,13.325-13.325h28.917v-60.238H13.325C5.907,331.861,0,325.954,0,318.535s5.907-13.325,13.325-13.325h28.917
		v-60.101H13.325C5.907,245.109,0,239.202,0,231.784c0-7.418,5.907-13.325,13.325-13.325h28.917v-60.101H13.325
		C5.907,158.358,0,152.45,0,145.032c0-7.418,5.907-13.325,13.325-13.325h28.917V67.141H13.325C5.907,67.141,0,61.234,0,53.816
		s5.907-13.325,13.325-13.325h42.311c7.418,0,13.325,5.907,13.325,13.325v473.252c0,5.22,0.756,11.883,4.465,14.836
		s8.929,2.954,8.929,2.954s0.756,0,1.511,0h514.739C606.024,544.721,611.931,550.697,611.931,558.115z"/>
</g>
<g>
</g>
<g>
</g>
<g>
</g>
<g>
</g>
<g>
</g>
<g>
</g>
<g>
</g>
<g>
</g>
<g>
</g>
<g>
</g>
<g>
</g>
<g>
</g>
<g>
</g>
<g>
</g>
<g>
</g>
</svg>
