<?xml version="1.0" encoding="iso-8859-1"?>
<!-- Generator: Adobe Illustrator 18.1.1, SVG Export Plug-In . SVG Version: 6.00 Build 0)  -->
<svg version="1.1" id="Capa_1" xmlns="http://www.w3.org/2000/svg" xmlns:xlink="http://www.w3.org/1999/xlink" x="0px" y="0px"
	 viewBox="0 0 611.989 611.989" style="enable-background:new 0 0 611.989 611.989;" xml:space="preserve">
<g>
	<path d="M609.922,179.309c-8.31-50.705-36.548-91.408-84.791-119.645c-27.391-16.62-58.168-24.929-88.945-24.929
		c-39.856,0-77.25,14.157-105.565,40.703c-9.156,8.31-16.62,16.62-24.929,25.776c-24.083-29.931-49.012-48.166-77.25-57.322
		c-50.705-16.62-100.564-10.003-146.268,19.082C27.391,97.827,0,146.839,0,209.163c0,36.548,12.465,71.48,37.394,106.334
		c26.622,37.394,59.861,75.634,103.026,120.492c29.931,29.931,59.861,59.861,89.715,88.945l29.084,28.238
		c2.462,2.462,5.001,5.001,7.463,7.463l3.309,3.309c5.848,5.001,19.082,13.311,35.701,13.311c14.157,0,27.391-5.848,39.087-16.62
		c49.859-47.397,103.872-98.871,154.577-153.731c26.622-28.238,56.476-62.323,81.405-99.717
		C607.383,266.562,616.54,223.32,609.922,179.309z M555.063,289.798c-23.237,35.701-51.551,66.478-78.097,95.562
		c-50.705,54.014-103.026,105.565-152.885,152.038c-6.617,5.848-12.465,8.31-18.312,8.31c-7.463,0-13.311-4.155-14.927-5.848
		l-2.462-2.462c-2.462-2.462-5.001-5.001-7.463-7.463l-29.084-27.391c-29.084-29.084-59.861-58.168-88.945-88.099
		c-43.242-44.011-73.942-79.789-100.564-116.337c-20.774-29.931-31.546-59.015-31.546-88.945c0-51.551,21.621-91.408,67.325-120.492
		c24.083-15.773,49.859-23.237,75.634-23.237c14.927,0,29.931,2.462,44.857,7.463c24.083,8.31,44.857,24.083,66.478,50.705
		c1.693,1.693,9.156,10.003,21.621,10.003c5.001,0,13.311-1.693,20.774-10.003l0.846-1.693c8.31-9.156,15.773-17.466,23.237-24.929
		c23.237-21.621,52.321-32.393,84.791-32.393c25.776,0,50.705,7.463,73.095,20.774c39.856,24.083,63.17,55.706,69.787,98.025
		C584.993,220.858,577.53,255.713,555.063,289.798z M213.515,151.84c-3.309,7.463-12.465,10.772-20.774,7.463
		c-7.463-3.309-14.927-5.001-23.237-5.001c-30.777,0-55.706,24.929-55.706,55.706c0,10.772,3.309,21.621,9.156,30.777
		c5.001,6.617,2.462,16.62-4.155,21.621c-2.462,1.693-5.848,2.462-8.31,2.462c-5.001,0-10.003-2.462-12.465-6.617
		c-9.156-14.157-14.157-30.777-14.157-48.166c0-47.397,39.087-86.406,86.406-86.406c12.465,0,24.929,2.462,36.548,8.31
		C213.515,135.221,216.824,144.377,213.515,151.84z"/>
</g>
<g>
</g>
<g>
</g>
<g>
</g>
<g>
</g>
<g>
</g>
<g>
</g>
<g>
</g>
<g>
</g>
<g>
</g>
<g>
</g>
<g>
</g>
<g>
</g>
<g>
</g>
<g>
</g>
<g>
</g>
</svg>
