<?xml version="1.0" encoding="iso-8859-1"?>
<!-- Generator: Adobe Illustrator 18.1.1, SVG Export Plug-In . SVG Version: 6.00 Build 0)  -->
<svg version="1.1" id="Capa_1" xmlns="http://www.w3.org/2000/svg" xmlns:xlink="http://www.w3.org/1999/xlink" x="0px" y="0px"
	 viewBox="0 0 612.074 612.074" style="enable-background:new 0 0 612.074 612.074;" xml:space="preserve">
<g>
	<path d="M306.037,0C136.997,0,0,136.997,0,306.037s136.997,306.037,306.037,306.037s306.037-136.997,306.037-306.037
		S474.261,0,306.037,0z M306.037,582.405c-152.203,0-276.368-124.165-276.368-276.368S153.019,29.669,306.037,29.669
		s276.368,124.165,276.368,276.368S458.24,582.405,306.037,582.405z M318.869,454.234c0,8.827-7.195,16.021-16.021,16.021
		c-8.827,0-16.021-7.195-16.021-16.021c0-8.827,7.195-16.021,16.021-16.021C311.6,438.213,318.869,445.408,318.869,454.234z
		 M385.328,236.315c0,28.037-16.021,53.701-45.69,71.28c-21.658,12.832-20.843,28.037-20.843,28.853c0,0,0,0.816,0,1.632v36.864
		c0,8.011-6.379,14.39-14.39,14.39s-15.205-6.379-15.205-14.39v-36.048c-0.816-12.832,5.637-37.68,34.416-55.259
		c14.39-8.827,31.227-24.032,31.227-46.432c0-27.221-22.4-49.696-49.696-49.696c-27.296,0-49.696,22.4-49.696,49.696
		c0,8.011-6.379,14.39-14.39,14.39s-14.39-6.379-14.39-14.39c0-44.059,35.232-79.291,79.291-79.291S385.328,192.256,385.328,236.315
		z"/>
</g>
<g>
</g>
<g>
</g>
<g>
</g>
<g>
</g>
<g>
</g>
<g>
</g>
<g>
</g>
<g>
</g>
<g>
</g>
<g>
</g>
<g>
</g>
<g>
</g>
<g>
</g>
<g>
</g>
<g>
</g>
</svg>
