<?xml version="1.0" encoding="iso-8859-1"?>
<!-- Generator: Adobe Illustrator 18.1.1, SVG Export Plug-In . SVG Version: 6.00 Build 0)  -->
<svg version="1.1" id="Capa_1" xmlns="http://www.w3.org/2000/svg" xmlns:xlink="http://www.w3.org/1999/xlink" x="0px" y="0px"
	 viewBox="0 0 747.039 747.039" style="enable-background:new 0 0 747.039 747.039;" xml:space="preserve">
<g>
	<path d="M679.474,295.007c-1.012-12.878-5.979-31.828-23.825-50.686l-1.012-1.012l-23.825-23.825c0-1.012,0-1.012,0-2.024V37.715
		C630.812,16.834,613.886,0,593.096,0h-65.588c-20.881,0-37.715,16.926-37.715,37.715v48.662l-58.597-56.665
		c-7.911-6.991-30.816-24.837-60.62-24.837c-22.813,0-43.695,9.935-62.552,28.792L97.37,238.342
		c-9.935,9.935-16.926,19.87-20.881,28.792c0,0,0,1.012-1.012,1.012c-5.979,11.959-7.911,22.813-7.911,29.804v1.012v413.305
		c0,19.87,15.914,34.772,34.772,34.772h172.846c19.87,0,34.772-15.914,34.772-34.772v-67.52c0-1.012,0-2.024,0-2.944v-140.19
		h126.208v209.642c0,19.87,15.914,34.772,34.772,34.772H641.85c19.87,0,34.772-15.914,34.772-34.772V296.939
		C679.474,296.019,679.474,295.007,679.474,295.007z M527.508,36.703l65.588,1.012v146.998l-66.6-63.564L527.508,36.703z
		 M333.781,59.517c11.958-11.959,24.837-17.846,37.715-17.846c16.926,0,30.816,10.947,34.772,14.902l208.63,199.707H132.05
		L333.781,59.517z M642.77,709.232H474.891V483.768c0-9.935-7.911-17.846-17.846-17.846H293.03c-9.935,0-17.846,7.911-17.846,17.846
		v152.977c0,1.012,0,2.024,0,2.944v69.543H104.269V298.963c0-2.024,0-3.955,1.012-5.979h535.465c0,0,0,0,1.012,0
		c0,2.024,1.012,3.956,1.012,4.967L642.77,709.232L642.77,709.232z"/>
</g>
<g>
</g>
<g>
</g>
<g>
</g>
<g>
</g>
<g>
</g>
<g>
</g>
<g>
</g>
<g>
</g>
<g>
</g>
<g>
</g>
<g>
</g>
<g>
</g>
<g>
</g>
<g>
</g>
<g>
</g>
</svg>
