<?xml version="1.0" encoding="iso-8859-1"?>
<!-- Generator: Adobe Illustrator 18.1.1, SVG Export Plug-In . SVG Version: 6.00 Build 0)  -->
<svg version="1.1" id="Capa_1" xmlns="http://www.w3.org/2000/svg" xmlns:xlink="http://www.w3.org/1999/xlink" x="0px" y="0px"
	 viewBox="0 0 611.924 611.924" style="enable-background:new 0 0 611.924 611.924;" xml:space="preserve">
<g>
	<path d="M113.859,310.475c0,9.027-7.358,16.385-16.385,16.385s-16.385-7.358-16.385-16.385c0-9.027,7.358-16.385,16.385-16.385
		S113.859,301.449,113.859,310.475z M611.924,305.545v154.82c0,37.7-19.646,63.112-27.839,72.062l-34.438,36.031
		c-22.908,24.577-55.678,25.411-62.277,25.411l0,0H294.925c-44.224,0-69.635-22.15-76.159-28.673l-27.004-27.839v2.427
		c0,29.508-23.743,52.416-52.416,52.416h-86.93C22.908,592.202,0,568.459,0,539.786V269.514c0-29.508,23.743-52.416,52.416-52.416
		h86.02c27.004,0,49.154,19.646,52.416,45.892l102.405-106.501l31.101-113.024c2.427-9.861,12.289-25.412,31.101-25.412h54.919
		c16.385,0,27.839,9.861,29.508,26.246c0,0.834,0,0.834,0,1.669V226.2c0,1.669,0,2.427,0,3.262h89.282
		c10.62,0.834,28.673,4.096,45.892,22.15l22.15,22.908c8.192,9.027,13.123,19.647,13.957,31.935
		C611.924,304.711,611.924,305.545,611.924,305.545z M161.344,539.862v-35.197c-0.834-1.669-0.834-4.096-0.834-5.765l0.834-199.044
		c0,0,0,0,0-0.834v-29.508c0-12.289-9.861-22.15-22.15-22.15H52.416c-12.289,0-22.15,9.861-22.15,22.15v270.348
		c0,12.289,9.861,22.15,22.15,22.15h86.02C151.559,561.936,161.344,552.15,161.344,539.862z M581.658,306.379
		c-0.834-4.931-2.427-9.027-5.765-13.123l-22.15-22.908c-9.861-9.861-19.646-12.289-24.577-12.289h-91.785c-0.834,0-1.669,0-2.427,0
		c-12.289-1.669-24.577-11.454-24.577-33.604V47.485h-54.009c-0.834,0-1.669,2.427-1.669,3.262L321.93,167.109
		c-0.834,2.427-1.669,4.931-4.096,6.524L191.686,305.545v188.424l48.32,50.823c3.262,3.262,21.315,19.647,54.919,19.647H488.28
		c2.427,0,25.412-0.834,40.962-16.385l33.604-35.197c4.096-4.931,19.646-23.743,19.646-51.582V306.379H581.658z"/>
</g>
<g>
</g>
<g>
</g>
<g>
</g>
<g>
</g>
<g>
</g>
<g>
</g>
<g>
</g>
<g>
</g>
<g>
</g>
<g>
</g>
<g>
</g>
<g>
</g>
<g>
</g>
<g>
</g>
<g>
</g>
</svg>
