<?xml version="1.0" encoding="iso-8859-1"?>
<!-- Generator: Adobe Illustrator 18.1.1, SVG Export Plug-In . SVG Version: 6.00 Build 0)  -->
<svg version="1.1" id="Capa_1" xmlns="http://www.w3.org/2000/svg" xmlns:xlink="http://www.w3.org/1999/xlink" x="0px" y="0px"
	 viewBox="0 0 792 792" style="enable-background:new 0 0 792 792;" xml:space="preserve">
<g>
	<path d="M656.204,282.895v-22.691C656.204,116.347,539.857,0,396,0S136.76,116.347,136.76,260.204v22.691
		c-19.888,4.731-35.044,22.691-35.044,43.542v341.594c0,68.161,55.808,123.969,123.969,123.969h340.63
		c68.161,0,123.969-55.808,123.969-123.969V326.437C690.284,305.586,676.091,287.626,656.204,282.895z M171.717,260.204
		c0-124.933,100.314-225.159,224.283-225.159s225.159,101.278,225.159,225.159v21.727h-63.343v-23.655
		c0-87.961-71.928-159.889-159.889-159.889s-159.889,71.928-159.889,159.889v23.655h-66.234L171.717,260.204L171.717,260.204z
		 M522.773,257.312v23.655H272.995v-23.655c0-69.037,55.808-124.933,124.933-124.933S522.773,188.275,522.773,257.312z
		 M655.24,668.907c0,49.237-39.775,88.925-88.925,88.925h-340.63c-49.237,0-88.925-39.775-88.925-88.925V326.35
		c0-5.695,4.731-10.426,10.426-10.426h6.658h101.278h284.822h98.387h5.695c5.695,0,10.426,4.731,10.426,10.426v342.558H655.24z
		 M393.109,392.671c-45.382,0-82.354,36.884-82.354,82.354c0,20.851,7.534,40.651,21.727,55.808v111.616
		c0,22.691,17.96,40.651,40.651,40.651h38.811c22.691,0,40.651-17.96,40.651-40.651v-112.58
		c14.193-15.157,21.727-35.044,21.727-55.808C475.463,428.591,438.579,392.671,393.109,392.671z M423.422,509.018
		c-3.767,3.767-5.695,8.498-5.695,13.229v118.274c0,2.804-2.804,5.695-5.695,5.695h-38.811c-2.804,0-5.695-2.804-5.695-5.695
		V522.247c0-4.731-1.927-9.462-5.695-13.229c-10.426-8.498-16.12-21.727-16.12-35.044c0-25.582,20.851-47.31,47.31-47.31
		c26.458,0,47.31,20.851,47.31,47.31C440.419,487.29,433.848,500.519,423.422,509.018z"/>
</g>
<g>
</g>
<g>
</g>
<g>
</g>
<g>
</g>
<g>
</g>
<g>
</g>
<g>
</g>
<g>
</g>
<g>
</g>
<g>
</g>
<g>
</g>
<g>
</g>
<g>
</g>
<g>
</g>
<g>
</g>
</svg>
