<?xml version="1.0" encoding="iso-8859-1"?>
<!-- Generator: Adobe Illustrator 18.1.1, SVG Export Plug-In . SVG Version: 6.00 Build 0)  -->
<svg version="1.1" id="Capa_1" xmlns="http://www.w3.org/2000/svg" xmlns:xlink="http://www.w3.org/1999/xlink" x="0px" y="0px"
	 viewBox="0 0 612.077 612.077" style="enable-background:new 0 0 612.077 612.077;" xml:space="preserve">
<g>
	<path d="M306.037,0.001C136.997,0.001,0,136.999,0,306.039s136.997,306.037,306.037,306.037s306.037-136.997,306.037-306.037
		C612.816,136.924,475.077,0.001,306.037,0.001z M306.037,582.332c-152.203,0-276.368-124.165-276.368-276.368
		S153.834,29.596,306.037,29.596s276.368,124.165,276.368,276.368S459.056,582.332,306.037,582.332z M442.218,305.964
		c0,8.011-6.379,14.39-14.39,14.39H188.251c-8.011,0-14.39-6.379-14.39-14.39c0-8.011,6.379-14.39,14.39-14.39h239.504
		C435.765,290.759,442.218,297.954,442.218,305.964z M442.218,207.463c0,8.011-6.379,14.39-14.39,14.39H188.251
		c-8.011,0-14.39-6.379-14.39-14.39c0-8.011,6.379-14.39,14.39-14.39h239.504C435.765,192.257,442.218,198.636,442.218,207.463z
		 M442.218,404.54c0,8.011-6.379,14.39-14.39,14.39H188.251c-8.011,0-14.39-6.379-14.39-14.39s6.379-14.39,14.39-14.39h239.504
		C435.765,390.076,442.218,396.529,442.218,404.54z"/>
</g>
<g>
</g>
<g>
</g>
<g>
</g>
<g>
</g>
<g>
</g>
<g>
</g>
<g>
</g>
<g>
</g>
<g>
</g>
<g>
</g>
<g>
</g>
<g>
</g>
<g>
</g>
<g>
</g>
<g>
</g>
</svg>
