<?xml version="1.0" encoding="iso-8859-1"?>
<!-- Generator: Adobe Illustrator 18.1.1, SVG Export Plug-In . SVG Version: 6.00 Build 0)  -->
<svg version="1.1" id="Capa_1" xmlns="http://www.w3.org/2000/svg" xmlns:xlink="http://www.w3.org/1999/xlink" x="0px" y="0px"
	 viewBox="0 0 612.069 612.069" style="enable-background:new 0 0 612.069 612.069;" xml:space="preserve">
<g>
	<path d="M540.947,57.384H71.053C31.861,57.384,0,89.176,0,128.436v281.95c0,39.192,31.792,71.053,71.053,71.053h49.607
		l43.646,58.446c2.946,3.7,12.607,14.8,27.407,14.8c6.646,0,16.992-2.946,26.653-15.554l43.646-57.692h279.004
		c39.192,0,71.053-31.792,71.053-71.053V129.122C611.932,89.929,580.139,57.384,540.947,57.384z M584.593,411.072
		c0,24.392-20.007,43.646-43.646,43.646H254.543c-4.454,0-8.154,2.193-11.1,5.207l-47.346,63.653
		c-2.946,3.7-4.454,4.454-4.454,4.454c-0.754,0-3.7-2.193-5.207-4.454l-47.346-63.653c-2.193-3.7-6.646-5.207-11.1-5.207H71.738
		c-24.392,0-43.646-20.007-43.646-43.646v-281.95c0-24.392,20.007-43.646,43.646-43.646h469.894
		c24.392,0,43.646,20.007,43.646,43.646v281.95H584.593z M498.74,272.666c0,7.4-5.892,13.292-13.292,13.292H125.045
		c-7.4,0-13.292-5.892-13.292-13.292c0-7.4,5.893-13.292,13.292-13.292h360.403C492.848,258.62,498.74,264.581,498.74,272.666z
		 M498.74,354.819c0,7.4-5.892,13.292-13.292,13.292H125.045c-7.4,0-13.292-5.893-13.292-13.292s5.893-13.292,13.292-13.292h360.403
		C492.848,340.773,498.74,346.665,498.74,354.819z M110.999,191.267c0-7.4,5.893-13.292,13.292-13.292h216.79
		c7.4,0,13.292,5.893,13.292,13.292s-5.893,13.292-13.292,13.292H125.045C117.645,205.382,110.999,198.667,110.999,191.267z"/>
</g>
<g>
</g>
<g>
</g>
<g>
</g>
<g>
</g>
<g>
</g>
<g>
</g>
<g>
</g>
<g>
</g>
<g>
</g>
<g>
</g>
<g>
</g>
<g>
</g>
<g>
</g>
<g>
</g>
<g>
</g>
</svg>
