<?xml version="1.0" encoding="iso-8859-1"?>
<!-- Generator: Adobe Illustrator 18.1.1, SVG Export Plug-In . SVG Version: 6.00 Build 0)  -->
<svg version="1.1" id="Capa_1" xmlns="http://www.w3.org/2000/svg" xmlns:xlink="http://www.w3.org/1999/xlink" x="0px" y="0px"
	 viewBox="0 0 612.003 612.003" style="enable-background:new 0 0 612.003 612.003;" xml:space="preserve">
<g>
	<path d="M307.646,367.131c-49.639,0-90.085,40.446-90.085,90.085s40.446,90.085,90.085,90.085s90.085-40.446,90.085-90.085
		S357.284,367.131,307.646,367.131z M307.646,519.088c-34.365,0-61.872-27.506-61.872-61.872s27.506-61.872,61.872-61.872
		s61.872,27.506,61.872,61.872S341.233,519.088,307.646,519.088z M482.513,370.171c3.818,6.859,0.778,15.273-6.081,19.092
		s-15.273,0.778-19.092-6.081c-28.284-57.276-85.56-93.197-149.694-93.197c-64.912,0-124.451,37.406-151.179,96.237
		c-2.263,5.374-7.637,8.415-13.011,8.415c-2.263,0-3.818-0.778-6.081-1.556c-6.859-3.041-9.899-11.455-6.859-19.092
		c32.103-68.731,101.54-112.288,177.201-112.288C382.528,261.701,449.703,302.996,482.513,370.171z M549.759,285.389
		c4.596,6.081,3.041,15.273-3.041,19.87s-15.273,3.041-19.87-3.041c-50.417-70.993-132.087-113.773-219.203-113.773
		c-87.823,0-170.271,42.78-219.91,114.551c-3.041,3.818-6.859,6.081-11.455,6.081c-3.041,0-5.374-0.778-8.415-2.263
		c-6.081-4.596-7.637-13.011-3.818-19.87c55.72-79.408,146.654-126.784,243.598-126.784
		C403.105,160.161,493.968,207.537,549.759,285.389z M607.034,225.851c-6.081,5.374-15.273,3.818-19.87-1.556
		c-69.509-83.226-171.827-131.38-280.297-131.38c-109.177,0-212.273,48.861-281.782,132.865c-3.041,3.041-6.859,5.374-10.677,5.374
		c-3.041,0-6.081-0.778-9.192-3.041c-6.081-4.596-6.859-13.718-2.263-19.87C77.766,117.381,188.498,64.701,306.161,64.701
		c116.814,0,226.84,51.194,301.651,141.28C613.893,212.062,613.115,221.255,607.034,225.851z"/>
</g>
<g>
</g>
<g>
</g>
<g>
</g>
<g>
</g>
<g>
</g>
<g>
</g>
<g>
</g>
<g>
</g>
<g>
</g>
<g>
</g>
<g>
</g>
<g>
</g>
<g>
</g>
<g>
</g>
<g>
</g>
</svg>
