<?xml version="1.0" encoding="iso-8859-1"?>
<!-- Generator: Adobe Illustrator 18.1.1, SVG Export Plug-In . SVG Version: 6.00 Build 0)  -->
<svg version="1.1" id="Capa_1" xmlns="http://www.w3.org/2000/svg" xmlns:xlink="http://www.w3.org/1999/xlink" x="0px" y="0px"
	 viewBox="0 0 612.074 612.074" style="enable-background:new 0 0 612.074 612.074;" xml:space="preserve">
<g>
	<path d="M306.037,0.037C136.997,0.037,0,137.034,0,306.074s136.997,305.963,306.037,305.963S612.074,475.04,612.074,306
		S475.003,0.037,306.037,0.037z M306.037,583.258c-152.203,0-276.368-124.165-276.368-276.368S153.834,30.522,306.037,30.522
		S582.405,154.687,582.405,306.89S458.24,583.258,306.037,583.258z M257.157,189.92h-48.064c-15.205,0-27.221,12.016-27.221,27.221
		v179.424c0,15.205,12.016,27.221,27.221,27.221h48.064c15.205,0,27.221-12.016,27.221-27.221V217.141
		C284.379,201.936,272.363,189.92,257.157,189.92z M254.71,393.376h-42.427V219.515h42.427V393.376z M402.165,189.92h-48.064
		c-15.205,0-27.221,12.016-27.221,27.221v179.424c0,15.205,12.016,27.221,27.221,27.221h48.064
		c15.205,0,27.221-12.016,27.221-27.221V217.141C429.387,201.936,417.371,189.92,402.165,189.92z M399.717,393.376h-42.427V219.515
		h42.427V393.376z"/>
</g>
<g>
</g>
<g>
</g>
<g>
</g>
<g>
</g>
<g>
</g>
<g>
</g>
<g>
</g>
<g>
</g>
<g>
</g>
<g>
</g>
<g>
</g>
<g>
</g>
<g>
</g>
<g>
</g>
<g>
</g>
</svg>
