<?xml version="1.0" encoding="iso-8859-1"?>
<!-- Generator: Adobe Illustrator 18.1.1, SVG Export Plug-In . SVG Version: 6.00 Build 0)  -->
<svg version="1.1" id="Capa_1" xmlns="http://www.w3.org/2000/svg" xmlns:xlink="http://www.w3.org/1999/xlink" x="0px" y="0px"
	 viewBox="0 0 612.074 612.074" style="enable-background:new 0 0 612.074 612.074;" xml:space="preserve">
<g>
	<path d="M306.037,0.037C136.997,0.037,0,137.034,0,306.074s136.997,305.963,306.037,305.963S612.074,475.04,612.074,306
		S475.077,0.037,306.037,0.037z M306.037,582.442c-152.203,0-276.368-124.165-276.368-276.368S153.834,29.706,306.037,29.706
		s276.368,124.165,276.368,276.368S459.056,582.442,306.037,582.442z M425.381,285.232c-0.816,0-0.816-0.816-1.632-0.816
		l-169.856-97.76c-5.637-3.189-10.384-4.821-16.021-4.821c-11.2,0-23.216,8.827-23.216,28.037v192.256
		c0.816,19.211,12.016,28.037,24.032,28.037c5.637,0,11.2-1.632,16.837-4.821l162.587-93.754
		c12.016-6.379,17.653-15.205,18.395-24.848C437.397,302.885,435.84,293.242,425.381,285.232z M244.325,398.197V215.509
		l157.84,91.307L244.325,398.197z"/>
</g>
<g>
</g>
<g>
</g>
<g>
</g>
<g>
</g>
<g>
</g>
<g>
</g>
<g>
</g>
<g>
</g>
<g>
</g>
<g>
</g>
<g>
</g>
<g>
</g>
<g>
</g>
<g>
</g>
<g>
</g>
</svg>
