<?xml version="1.0" encoding="iso-8859-1"?>
<!-- Generator: Adobe Illustrator 18.1.1, SVG Export Plug-In . SVG Version: 6.00 Build 0)  -->
<svg version="1.1" id="Capa_1" xmlns="http://www.w3.org/2000/svg" xmlns:xlink="http://www.w3.org/1999/xlink" x="0px" y="0px"
	 viewBox="0 0 621.456 621.456" style="enable-background:new 0 0 621.456 621.456;" xml:space="preserve">
<g>
	<path d="M113.155,278.033h-0.837H36.712c-3.271,0-17.266-0.837-25.481-12.322c-3.271-4.944-7.378-13.159-4.107-24.644
		c27.915-109.226,93.633-183.996,194.72-220.125C325.066-23.403,439.236,2.838,536.216,98.145l41.074-39.4
		c3.271-2.434,10.649-9.051,19.7-9.051c7.378,0,19.7,4.944,19.7,22.971v179.051c0,13.159-9.051,23.808-22.971,26.318
		c-0.837,0-2.434,0-3.271,0H412.994c-0.837,0-0.837,0-1.673,0c-4.107-0.837-17.266-2.434-21.374-14.756
		c-1.673-4.944-3.271-13.996,6.541-23.808l43.508-44.345c-39.4-42.747-87.092-62.447-141.324-58.34
		c-74.77,6.541-124.895,44.345-152.81,116.68C137.8,272.328,123.88,278.033,113.155,278.033z M37.625,247.684L37.625,247.684h75.606
		c0.837,0,2.434-0.837,4.944-4.944c32.022-82.148,92.796-128.166,178.291-134.707c68.989-5.781,129.002,21.374,176.617,79.714
		c4.944,5.781,4.107,14.756-0.837,20.537l-40.237,40.237h153.647V92.364l-38.64,37.803c-3.271,2.434-7.378,4.107-10.649,4.107
		c-4.107,0-8.215-1.673-10.649-4.944C434.368,34.1,328.413,6.946,212.569,48.856C121.37,81.715,63.03,149.107,37.625,247.684z
		 M306.202,621.456c-79.714,0-153.647-32.859-220.962-98.577l-41.074,39.4c-3.271,2.434-10.649,9.052-19.7,9.052l0,0
		c-7.378,0-19.7-4.944-19.7-22.971V370.069c0-13.159,9.051-23.808,22.971-26.318c0.837,0,2.434,0,3.271,0h176.617
		c0.837,0,0.837,0,1.673,0c4.107,0.837,17.266,2.434,21.374,14.756c1.673,4.944,3.271,13.996-6.541,23.808l-43.508,44.345
		c39.4,42.747,87.092,62.447,141.324,58.34c74.77-6.541,124.895-44.344,152.81-116.68c0,0,0-0.837,0.837-0.837
		c7.378-17.266,22.21-22.971,32.022-22.971h76.367c3.271,0,17.266,0.837,25.481,12.322c3.271,4.944,7.378,13.159,4.107,24.644
		c-27.915,110.063-92.796,183.996-193.884,220.962C381.809,614.839,343.169,621.456,306.202,621.456z M86.077,486.673
		L86.077,486.673c4.107,0,8.215,1.673,10.649,4.944c91.199,95.306,197.154,122.385,312.998,80.55
		c90.362-32.859,149.539-99.414,174.944-198.828l0,0h-75.606c0,0-2.434,0.837-4.107,4.944l0,0
		c-32.859,82.148-92.796,127.329-178.291,134.707c-68.989,5.781-129.002-21.374-176.617-79.714
		c-4.944-5.781-4.107-14.756,0.837-20.537l40.237-40.237H37.473v155.244l38.64-37.803C78.699,488.346,81.97,486.673,86.077,486.673z
		"/>
</g>
<g>
</g>
<g>
</g>
<g>
</g>
<g>
</g>
<g>
</g>
<g>
</g>
<g>
</g>
<g>
</g>
<g>
</g>
<g>
</g>
<g>
</g>
<g>
</g>
<g>
</g>
<g>
</g>
<g>
</g>
</svg>
