<?xml version="1.0" encoding="iso-8859-1"?>
<!-- Generator: Adobe Illustrator 18.1.1, SVG Export Plug-In . SVG Version: 6.00 Build 0)  -->
<svg version="1.1" id="Capa_1" xmlns="http://www.w3.org/2000/svg" xmlns:xlink="http://www.w3.org/1999/xlink" x="0px" y="0px"
	 viewBox="0 0 611.923 611.923" style="enable-background:new 0 0 611.923 611.923;" xml:space="preserve">
<g>
	<path d="M606.157,120.824L489.908,4.575c-2.46-2.46-6.612-4.152-10.764-4.152H434.32H175.988H40.672
		C18.222,0.423,0,18.721,0,41.095v529.734c0,22.45,18.298,40.672,40.672,40.672h86.341h368.661h75.577
		c22.45,0,40.672-18.299,40.672-40.672V131.665C611.077,128.359,609.463,124.207,606.157,120.824z M419.328,31.177v136.162
		c0,0.846-0.846,0.846-0.846,0.846h-42.363V31.177H419.328z M344.596,31.177v137.008H192.595c-0.846,0-0.846-0.846-0.846-0.846
		V31.177H344.596z M141.929,580.9V390.688c0-35.674,29.062-64.737,64.737-64.737h208.434c35.674,0,64.737,29.062,64.737,64.737
		v190.135H141.929V580.9z M580.401,570.905c0,4.997-4.152,9.995-9.995,9.995h-59.816V390.688c0-52.281-43.209-95.49-95.49-95.49
		H207.511c-52.281,0-95.49,43.209-95.49,95.49v190.135H40.595c-4.997,0-9.995-4.152-9.995-9.995V41.095
		c0-4.997,4.152-9.995,9.995-9.995h120.401v136.162c0,17.453,14.147,31.523,31.523,31.523h225.886
		c17.453,0,31.523-14.147,31.523-31.523V31.177h23.219l107.1,107.1L580.401,570.905L580.401,570.905z M422.634,490.33
		c0,8.304-6.612,14.916-14.916,14.916H217.506c-8.304,0-14.916-6.612-14.916-14.916c0-8.303,6.612-14.916,14.916-14.916h189.289
		C415.945,475.415,422.634,482.027,422.634,490.33z M422.634,410.678c0,8.303-6.612,14.916-14.916,14.916H217.506
		c-8.304,0-14.916-6.612-14.916-14.916s6.612-14.916,14.916-14.916h189.289C415.945,394.84,422.634,401.529,422.634,410.678z"/>
</g>
<g>
</g>
<g>
</g>
<g>
</g>
<g>
</g>
<g>
</g>
<g>
</g>
<g>
</g>
<g>
</g>
<g>
</g>
<g>
</g>
<g>
</g>
<g>
</g>
<g>
</g>
<g>
</g>
<g>
</g>
</svg>
