<?xml version="1.0" encoding="iso-8859-1"?>
<!-- Generator: Adobe Illustrator 18.1.1, SVG Export Plug-In . SVG Version: 6.00 Build 0)  -->
<svg version="1.1" id="Capa_1" xmlns="http://www.w3.org/2000/svg" xmlns:xlink="http://www.w3.org/1999/xlink" x="0px" y="0px"
	 viewBox="0 0 611.921 611.921" style="enable-background:new 0 0 611.921 611.921;" xml:space="preserve">
<g>
	<path d="M592.649,495.619L458.227,361.197c18.002-34.26,28.233-72.802,28.233-113.883c0-133.63-108.807-243.23-243.23-243.23
		C109.6,4.084,0,112.891,0,247.314s109.6,242.357,244.102,242.357c44.57,0,86.522-11.975,122.448-33.388l132.757,132.678
		c12.847,11.975,29.105,18.875,47.107,18.875c18.002,0,34.26-6.82,46.235-19.668C618.344,563.267,618.344,521.314,592.649,495.619z
		 M360.523,421.945c-33.388,22.285-73.675,35.132-117.372,35.132c-115.548,0.872-210.635-94.215-210.635-210.714
		S127.603,34.775,244.102,34.775s211.587,95.087,211.587,211.587c0,39.415-11.103,76.212-29.977,107.935l-0.872,0.872
		C408.502,381.737,386.218,404.815,360.523,421.945z M570.365,566.756c-12.847,12.847-36.005,12.847-48.852,0L393.038,438.281
		c0.872,0,0.872-0.872,1.745-0.872c17.13-13.72,33.388-29.977,46.235-47.98l129.347,129.347
		C584.085,531.624,584.085,553.036,570.365,566.756z M244.102,101.63c-79.623,0-144.732,65.11-144.732,144.732
		s65.11,144.732,144.732,144.732s144.732-65.11,144.732-144.732S323.725,101.63,244.102,101.63z M244.102,360.324
		c-62.493,0-113.883-50.518-113.883-113.883c0-62.493,50.518-113.883,113.883-113.883c62.493,0,113.883,50.518,113.883,113.883
		C357.112,308.934,306.595,360.324,244.102,360.324z"/>
</g>
<g>
</g>
<g>
</g>
<g>
</g>
<g>
</g>
<g>
</g>
<g>
</g>
<g>
</g>
<g>
</g>
<g>
</g>
<g>
</g>
<g>
</g>
<g>
</g>
<g>
</g>
<g>
</g>
<g>
</g>
</svg>
