<?xml version="1.0" encoding="iso-8859-1"?>
<!-- Generator: Adobe Illustrator 18.1.1, SVG Export Plug-In . SVG Version: 6.00 Build 0)  -->
<svg version="1.1" id="Capa_1" xmlns="http://www.w3.org/2000/svg" xmlns:xlink="http://www.w3.org/1999/xlink" x="0px" y="0px"
	 viewBox="0 0 611.815 611.815" style="enable-background:new 0 0 611.815 611.815;" xml:space="preserve">
<g>
	<path d="M611.027,234.153c-1.719-5.078-6.718-14.374-22.811-16.874l-179.678-26.171L330.104,32.523
		c-7.578-15.155-16.874-17.733-24.452-17.733c-15.156,0-23.593,15.155-25.311,17.733l-78.434,158.586L24.729,216.42
		c-11.796,1.719-21.093,8.437-23.593,17.733c-3.359,10.156,0.859,20.233,10.937,30.389L138.629,386.88L109.1,561.559
		c-0.859,4.219-3.359,17.733,5.078,27.03c6.718,8.437,18.593,10.156,31.248,4.219c0,0,0.859,0,0.859-0.859l159.445-84.371
		l159.445,84.371c5.937,3.359,11.796,5.078,16.874,5.078c6.718,0,11.796-2.5,16.015-6.718c3.359-3.359,6.718-10.156,5.078-22.811
		L472.675,386.88l129.056-125.697C612.668,250.168,612.668,240.95,611.027,234.153z M444.785,370.865
		c-3.359,3.359-5.078,8.437-4.219,13.515l30.389,175.46l-157.804-82.652c-4.219-2.5-10.156-2.5-14.374,0L140.973,559.84
		l30.389-175.46c0.859-5.078-0.859-10.156-4.219-13.515L38.947,246.809l176.319-25.311c5.078-0.859,9.296-4.219,11.796-8.437
		l78.434-159.445l78.433,159.445c2.5,4.219,6.718,7.578,11.796,8.437l176.319,25.311L444.785,370.865z"/>
</g>
<g>
</g>
<g>
</g>
<g>
</g>
<g>
</g>
<g>
</g>
<g>
</g>
<g>
</g>
<g>
</g>
<g>
</g>
<g>
</g>
<g>
</g>
<g>
</g>
<g>
</g>
<g>
</g>
<g>
</g>
</svg>
