<?xml version="1.0" encoding="iso-8859-1"?>
<!-- Generator: Adobe Illustrator 18.1.1, SVG Export Plug-In . SVG Version: 6.00 Build 0)  -->
<svg version="1.1" id="Capa_1" xmlns="http://www.w3.org/2000/svg" xmlns:xlink="http://www.w3.org/1999/xlink" x="0px" y="0px"
	 viewBox="0 0 612.816 612.816" style="enable-background:new 0 0 612.816 612.816;" xml:space="preserve">
<g>
	<path d="M306.408,612.816c-168.224,0-306.037-137.813-306.037-306.779S137.368,0,306.408,0s306.037,136.997,306.037,306.037
		S475.374,612.816,306.408,612.816z M306.408,29.595C154.205,29.595,30.04,153.76,30.04,305.963s124.165,276.368,276.368,276.368
		s276.368-124.165,276.368-276.368S459.352,29.595,306.408,29.595z M386.515,420.56H227.043c-17.653,0-32.043-14.39-32.043-32.043
		V229.12c0-17.653,14.39-32.043,32.043-32.043H386.44c17.653,0,32.043,14.39,32.043,32.043v159.397
		C418.557,406.096,404.094,420.56,386.515,420.56z M227.043,226.672c-1.632,0-2.374,0.816-2.374,2.374v159.397
		c0,1.632,0.816,2.374,2.374,2.374H386.44c1.632,0,2.374-0.816,2.374-2.374V229.12c0-1.632-0.816-2.374-2.374-2.374H227.043V226.672
		z"/>
</g>
<g>
</g>
<g>
</g>
<g>
</g>
<g>
</g>
<g>
</g>
<g>
</g>
<g>
</g>
<g>
</g>
<g>
</g>
<g>
</g>
<g>
</g>
<g>
</g>
<g>
</g>
<g>
</g>
<g>
</g>
</svg>
