<?xml version="1.0" encoding="iso-8859-1"?>
<!-- Generator: Adobe Illustrator 18.1.1, SVG Export Plug-In . SVG Version: 6.00 Build 0)  -->
<svg version="1.1" id="Capa_1" xmlns="http://www.w3.org/2000/svg" xmlns:xlink="http://www.w3.org/1999/xlink" x="0px" y="0px"
	 viewBox="0 0 611.859 611.859" style="enable-background:new 0 0 611.859 611.859;" xml:space="preserve">
<g>
	<path d="M306.394,211.583c-52.582,0-95.135,42.553-95.135,95.135s42.553,95.135,95.135,95.135s95.923-42.553,95.923-95.135
		S358.976,211.583,306.394,211.583z M306.394,374.057c-37.108,0-67.339-30.159-67.339-67.339s30.159-67.339,67.339-67.339
		c37.108,0,67.339,30.159,67.339,67.339S343.502,374.057,306.394,374.057z M598.031,292.82h-42.553
		C548.529,166.738,446.374,64.582,320.292,57.634V14.293c0-7.737-6.161-13.898-13.898-13.898c-7.737,0-13.898,6.161-13.898,13.898
		v43.341C166.343,65.299,65.763,166.666,58.026,292.032H13.898C6.161,292.032,0,298.193,0,305.93
		c0,7.737,6.161,13.898,13.898,13.898h44.129c6.949,126.082,108.316,227.449,234.398,234.398v43.341
		c0,7.737,6.161,13.898,13.898,13.898c7.737,0,13.898-6.161,13.898-13.898v-43.341c126.87-6.949,228.237-108.316,235.186-235.186
		h42.553c7.737,0,13.898-6.161,13.898-13.898C612,297.405,605.768,292.82,598.031,292.82z M320.292,527.218v-43.341
		c0-7.737-6.161-13.898-13.898-13.898s-13.898,6.161-13.898,13.898v43.341c-109.892-7.737-198.078-95.923-205.815-205.815h42.553
		c7.737,0,13.898-6.161,13.898-13.898c0-7.737-6.161-13.898-13.898-13.898H86.681C93.63,183.716,181.816,94.742,292.496,87.793
		v43.341c0,7.737,6.161,13.898,13.898,13.898c7.737,0,13.898-6.161,13.898-13.898V87.793
		c110.608,6.949,199.582,95.135,206.603,205.815h-44.129c-7.737,0-13.898,6.161-13.898,13.898c0,7.737,6.161,13.898,13.898,13.898
		h44.129C519.946,432.083,430.972,520.269,320.292,527.218z"/>
</g>
<g>
</g>
<g>
</g>
<g>
</g>
<g>
</g>
<g>
</g>
<g>
</g>
<g>
</g>
<g>
</g>
<g>
</g>
<g>
</g>
<g>
</g>
<g>
</g>
<g>
</g>
<g>
</g>
<g>
</g>
</svg>
