<?xml version="1.0" encoding="iso-8859-1"?>
<!-- Generator: Adobe Illustrator 18.1.1, SVG Export Plug-In . SVG Version: 6.00 Build 0)  -->
<svg version="1.1" id="Capa_1" xmlns="http://www.w3.org/2000/svg" xmlns:xlink="http://www.w3.org/1999/xlink" x="0px" y="0px"
	 viewBox="0 0 611.955 611.955" style="enable-background:new 0 0 611.955 611.955;" xml:space="preserve">
<g>
	<path d="M580.736,0.837H359.54c-15.163,0-21.103,6.722-23.605,12.662c-5.08,11.802,4.221,22.823,6.722,26.184l52.368,54.009
		l-22.823,22.823c-21.103,21.103-43.067,43.067-64.17,64.17c-18.602,18.602-18.602,35.485-0.86,54.009
		c17.743,17.743,35.485,36.267,53.149,54.009l16.023,15.163c2.501,2.501,5.94,5.94,9.301,8.441
		c5.94,4.221,12.662,6.722,19.384,6.722s13.522-2.501,18.602-6.722c3.361-2.501,6.722-5.94,10.161-9.301l86.133-86.133
		l52.368,51.508c2.501,2.501,10.161,8.441,19.384,8.441c7.582,0,20.244-5.08,20.244-25.324V32.961
		C612.782,11.858,596.759,0.837,580.736,0.837z M581.517,232.975l-49.788-48.929c-5.94-5.94-16.023-5.94-21.963,0l-2.501,2.501
		c-1.72,1.72-3.361,2.501-4.221,4.221l-90.354,90.354c-2.501,2.501-5.08,4.221-7.582,6.722l0,0c-2.501-1.72-4.221-3.361-5.94-5.08
		L383.145,267.6c-17.742-18.602-36.267-36.267-53.149-54.009c-2.501-2.501-3.361-4.221-4.221-5.08c0.86-0.86,1.72-2.501,4.221-5.08
		c21.103-21.103,43.067-43.067,64.17-64.17l27.825-27.825c1.72-1.72,2.501-3.361,4.221-4.221l1.72-1.72
		c5.94-5.94,5.94-16.023,0-21.963l-48.929-50.648h201.733h0.86c0,0,0,0,0,0.86L581.517,232.975L581.517,232.975z M251.522,324.189
		l-16.023-16.023c-2.501-2.501-5.94-5.94-9.301-8.441c-11.802-8.441-26.184-8.441-37.986,0c-3.361,2.501-6.722,5.94-10.161,9.301
		c-21.103,21.103-41.347,41.347-62.451,62.451l-23.605,23.605l-52.368-51.508c-2.501-2.501-10.161-8.441-19.384-8.441
		c-7.582,0-20.244,5.08-20.244,25.324v218.616c0,21.103,16.023,32.046,32.046,32.046l0,0h221.195
		c15.163,0,21.103-6.722,23.605-12.662c5.08-11.802-4.221-22.823-6.722-26.184l-52.368-54.009l24.464-24.464
		c21.103-21.103,41.347-41.347,62.451-62.451c18.602-18.602,18.602-35.485,0.86-54.009
		C286.929,359.596,269.186,341.932,251.522,324.189z M281.848,410.244c-20.244,21.103-41.347,41.347-62.451,62.451l-30.405,30.405
		c-1.72,1.72-3.361,3.361-4.221,4.221l-1.72,1.72c-5.94,5.94-5.94,16.023,0,21.963l48.929,50.648H30.326h-0.86c0,0,0,0,0-0.86
		V379.918l49.789,48.929c5.94,5.94,15.163,5.94,21.963,0l2.501-1.72c1.72-1.72,3.361-3.361,5.08-4.221l28.685-28.685
		c21.103-21.103,41.347-41.347,62.451-62.451c2.501-2.501,5.08-4.221,7.582-6.722l0,0c2.501,1.72,4.221,3.361,5.94,5.08
		l16.023,16.023c17.743,17.743,35.485,35.485,53.149,53.149c2.501,2.501,3.361,4.221,4.221,5.08
		C286.069,405.242,284.428,406.883,281.848,410.244z"/>
</g>
<g>
</g>
<g>
</g>
<g>
</g>
<g>
</g>
<g>
</g>
<g>
</g>
<g>
</g>
<g>
</g>
<g>
</g>
<g>
</g>
<g>
</g>
<g>
</g>
<g>
</g>
<g>
</g>
<g>
</g>
</svg>
