<?xml version="1.0" standalone="no"?>
<!DOCTYPE svg PUBLIC "-//W3C//DTD SVG 20010904//EN"
 "http://www.w3.org/TR/2001/REC-SVG-20010904/DTD/svg10.dtd">
<svg version="1.0" xmlns="http://www.w3.org/2000/svg"
 width="700.000000pt" height="700.000000pt" viewBox="0 0 700.000000 700.000000"
 preserveAspectRatio="xMidYMid meet">
<metadata>
Created by potrace 1.11, written by Peter Selinger 2001-2013
</metadata>
<g transform="translate(0.000000,700.000000) scale(0.100000,-0.100000)"
fill="#000000" stroke="none">
<path d="M1800 6850 c-398 -86 -691 -418 -730 -827 -14 -148 -14 -4898 0
-5046 40 -418 345 -756 753 -832 72 -13 280 -15 1712 -13 l1630 3 80 23 c346
98 610 386 677 738 19 102 19 5106 0 5208 -67 352 -331 640 -677 738 l-80 23
-1640 2 c-1559 2 -1644 1 -1725 -17z m3355 -325 c106 -28 184 -74 271 -160 63
-62 89 -97 117 -155 67 -143 62 62 62 -2710 0 -2772 5 -2567 -62 -2710 -46
-98 -166 -220 -263 -267 -137 -67 -20 -63 -1778 -63 -1760 0 -1642 -4 -1781
63 -97 47 -217 168 -264 267 -72 152 -67 -46 -67 2710 0 2756 -5 2558 67 2710
45 95 167 220 258 264 141 69 7 64 1780 65 1412 1 1608 -1 1660 -14z"/>
<path d="M2747 4935 c-278 -53 -517 -242 -642 -508 -60 -126 -86 -236 -92
-383 -5 -122 -4 -138 21 -225 15 -52 46 -134 70 -184 75 -158 270 -429 487
-676 162 -185 798 -866 826 -884 37 -25 129 -25 166 0 28 18 681 718 821 879
328 378 512 666 567 886 19 72 21 103 16 210 -20 449 -326 812 -749 886 -238
41 -499 -35 -684 -199 l-54 -49 -54 49 c-96 85 -227 154 -361 188 -89 23 -245
27 -338 10z m245 -326 c75 -16 185 -70 243 -122 28 -24 73 -76 100 -116 108
-154 222 -151 339 10 67 92 135 150 221 189 201 92 405 55 569 -101 114 -108
178 -238 196 -397 11 -99 -1 -165 -50 -269 -107 -230 -306 -481 -804 -1017
-133 -143 -256 -275 -273 -295 l-33 -36 -27 31 c-16 17 -143 154 -283 305
-386 415 -482 526 -627 724 -207 284 -259 445 -208 646 31 121 80 206 169 294
140 139 295 190 468 154z"/>
</g>
</svg>
