<?xml version="1.0" standalone="no"?>
<!DOCTYPE svg PUBLIC "-//W3C//DTD SVG 20010904//EN"
 "http://www.w3.org/TR/2001/REC-SVG-20010904/DTD/svg10.dtd">
<svg version="1.0" xmlns="http://www.w3.org/2000/svg"
 width="700.000000pt" height="700.000000pt" viewBox="0 0 700.000000 700.000000"
 preserveAspectRatio="xMidYMid meet">
<metadata>
Created by potrace 1.11, written by Peter Selinger 2001-2013
</metadata>
<g transform="translate(0.000000,700.000000) scale(0.100000,-0.100000)"
fill="#000000" stroke="none">
<path d="M1921 6867 c-328 -27 -611 -218 -758 -512 -46 -92 -80 -203 -90 -300
-9 -80 -9 -5033 0 -5110 42 -371 322 -692 684 -784 43 -12 98 -23 123 -26 63
-9 3156 -8 3233 0 286 30 563 214 702 467 45 82 80 173 94 241 6 28 14 63 17
77 4 14 7 1166 8 2560 1 2687 3 2604 -45 2750 -94 288 -335 522 -624 605 -77
22 -86 24 -173 31 -107 10 -3059 10 -3171 1z m3229 -341 c173 -45 316 -161
395 -321 68 -138 64 50 63 -2715 0 -2325 -2 -2510 -17 -2570 -10 -36 -29 -90
-43 -120 -24 -53 -101 -157 -143 -192 -85 -73 -205 -130 -305 -144 -69 -9
-3093 -12 -3176 -2 -113 13 -240 69 -329 146 -34 29 -114 130 -135 172 -21 42
-49 118 -57 160 -3 14 -7 1158 -8 2544 -2 2187 -1 2527 12 2585 17 73 70 193
103 231 12 14 32 36 44 50 83 98 231 173 376 189 30 3 753 6 1605 5 1427 0
1555 -2 1615 -18z"/>
<path d="M2730 4930 c-109 -23 -179 -50 -266 -102 -144 -86 -271 -223 -347
-375 -34 -66 -72 -167 -82 -218 -5 -22 -9 -42 -10 -45 -18 -67 -22 -244 -6
-315 33 -143 100 -288 212 -455 77 -115 271 -366 350 -451 19 -20 57 -63 86
-95 28 -33 70 -79 92 -103 23 -24 87 -93 144 -154 56 -60 110 -119 119 -129
44 -51 252 -272 324 -344 89 -90 121 -103 196 -84 45 12 96 60 300 281 47 52
104 113 125 135 162 173 271 290 286 308 10 12 33 37 50 56 385 423 616 771
673 1017 18 80 20 212 4 303 -82 468 -463 802 -895 785 -107 -4 -139 -9 -225
-36 -115 -36 -231 -103 -317 -182 l-42 -39 -33 32 c-78 75 -235 165 -338 193
-136 37 -273 43 -400 17z m315 -335 c119 -41 203 -106 289 -223 62 -85 86
-102 153 -109 68 -8 120 24 177 107 86 125 196 203 336 238 53 13 205 6 260
-12 116 -39 224 -124 296 -232 37 -55 80 -154 88 -201 3 -15 10 -49 14 -75 24
-125 -13 -248 -131 -438 -77 -123 -243 -335 -406 -520 -42 -47 -84 -96 -96
-108 -11 -13 -33 -38 -50 -56 -133 -142 -194 -207 -286 -306 -58 -63 -124
-135 -147 -159 l-40 -43 -57 58 c-31 33 -77 82 -102 109 -25 28 -75 82 -112
120 -109 116 -280 301 -302 326 -12 13 -40 47 -64 74 -24 28 -58 66 -75 85
-50 56 -175 211 -211 263 -223 318 -265 426 -235 617 38 240 218 446 436 497
69 16 199 10 265 -12z"/>
</g>
</svg>
