<?xml version="1.0" standalone="no"?>
<!DOCTYPE svg PUBLIC "-//W3C//DTD SVG 20010904//EN"
 "http://www.w3.org/TR/2001/REC-SVG-20010904/DTD/svg10.dtd">
<svg version="1.0" xmlns="http://www.w3.org/2000/svg"
 width="512.000000pt" height="512.000000pt" viewBox="0 0 512.000000 512.000000"
 preserveAspectRatio="xMidYMid meet">
<metadata>
Created by potrace 1.11, written by Peter Selinger 2001-2013
</metadata>
<g transform="translate(0.000000,512.000000) scale(0.100000,-0.100000)"
fill="#000000" stroke="none">
<path d="M735 5002 c-2 -2 -23 -6 -46 -8 -131 -15 -283 -108 -372 -227 -43
-57 -86 -157 -101 -233 -10 -56 -13 -375 -11 -1639 l1 -1570 23 -70 c67 -207
233 -360 433 -401 18 -4 539 -7 1158 -8 l1125 0 70 23 c202 66 340 217 390
428 18 78 17 3162 -1 3253 -46 219 -232 401 -452 442 -51 9 -2208 19 -2217 10z
m2115 -385 c93 -7 155 -54 175 -133 7 -27 10 -550 10 -1580 l-1 -1539 -24 -43
c-16 -28 -42 -54 -69 -70 l-45 -26 -1062 -1 c-584 0 -1080 4 -1102 8 -52 10
-115 65 -131 114 -9 30 -11 383 -9 1593 3 1694 -1 1573 58 1628 34 32 65 43
135 51 66 7 1977 5 2065 -2z"/>
<path d="M2498 4432 c-11 -2 -24 -26 -37 -65 -26 -80 -124 -390 -126 -397 -1
-3 -7 -25 -14 -49 -9 -32 -10 -46 -1 -51 14 -8 102 -6 117 3 7 4 19 32 28 62
8 30 19 55 23 56 40 4 145 3 153 -2 6 -3 12 -12 13 -20 11 -59 29 -99 44 -100
58 -5 108 -4 118 3 11 8 -155 531 -175 551 -10 10 -110 16 -143 9z m91 -235
c11 -42 21 -82 21 -87 0 -6 -22 -10 -50 -10 l-49 0 13 43 c7 23 13 47 15 52 6
33 23 86 26 84 1 -2 12 -39 24 -82z"/>
<path d="M1651 3734 c-134 -107 -173 -141 -291 -256 -56 -55 -126 -131 -165
-181 -16 -21 -35 -44 -40 -50 -47 -55 -121 -188 -151 -272 -25 -71 -25 -223 1
-290 52 -136 144 -220 280 -255 86 -22 170 -21 228 4 20 8 37 13 37 10 0 -2
18 7 40 21 22 14 42 25 45 25 3 0 26 16 51 35 26 20 48 34 50 32 10 -10 -96
-335 -157 -479 l-28 -68 21 -11 c13 -7 91 -12 212 -12 187 -1 273 5 287 20 4
5 -3 31 -15 58 -13 28 -31 67 -40 88 -20 44 -103 293 -110 328 -2 13 -7 37
-12 54 l-7 29 39 -31 c151 -118 308 -148 464 -87 155 60 255 219 251 399 -4
172 -125 376 -368 620 -116 116 -120 120 -253 230 -118 97 -197 155 -212 155
-7 0 -78 -52 -157 -116z"/>
<path d="M1210 1980 c-31 -4 -36 -10 -49 -50 -23 -77 -20 -75 -108 -77 l-80
-1 -19 61 -19 62 -67 3 c-38 2 -68 -1 -68 -6 0 -11 105 -348 148 -477 l27 -80
80 0 80 0 91 275 c51 151 90 278 88 281 -6 10 -64 15 -104 9z m-125 -316 c-13
-47 -26 -88 -29 -91 -6 -6 -34 86 -43 140 l-6 37 51 0 51 0 -24 -86z"/>
<path d="M3605 4193 l0 -197 30 -8 c53 -16 137 -38 270 -73 72 -19 157 -41
190 -50 33 -9 68 -18 78 -21 9 -2 25 -6 35 -8 9 -3 44 -12 77 -21 33 -9 78
-21 101 -26 50 -12 106 -57 128 -103 31 -65 28 -84 -106 -576 -21 -80 -41
-154 -43 -165 -6 -29 -172 -658 -191 -725 -9 -30 -17 -62 -19 -70 -2 -8 -11
-44 -20 -80 -9 -36 -19 -73 -20 -83 -2 -9 -6 -21 -9 -25 -3 -5 -7 -19 -10 -33
-3 -13 -12 -51 -21 -84 -17 -62 -22 -80 -30 -116 -2 -11 -7 -29 -10 -39 -3
-10 -8 -27 -10 -37 -2 -10 -20 -76 -40 -148 -19 -71 -37 -139 -39 -151 -2 -11
-17 -70 -34 -130 -25 -92 -34 -125 -47 -174 0 -3 -4 -14 -8 -25 -3 -11 -8 -31
-11 -45 -3 -14 -12 -52 -21 -85 -9 -33 -18 -67 -20 -75 -17 -75 -56 -202 -69
-228 -22 -42 -85 -83 -138 -89 -40 -4 -61 -1 -163 27 -22 6 -47 12 -55 14 -8
2 -51 14 -95 26 -44 12 -87 23 -95 25 -8 2 -69 18 -135 36 -66 18 -131 32
-145 32 -14 -1 -335 -2 -715 -3 -614 -1 -686 -3 -656 -16 31 -13 131 -45 156
-50 6 -1 106 -27 223 -58 117 -32 220 -59 230 -61 9 -1 42 -10 72 -19 67 -19
359 -96 380 -100 8 -2 22 -6 30 -9 12 -5 198 -54 270 -72 8 -2 42 -11 75 -20
33 -9 67 -18 75 -20 19 -4 221 -57 320 -84 156 -42 225 -46 329 -21 136 34
253 110 330 214 36 48 77 126 87 165 2 9 22 81 43 161 22 80 62 231 89 335 28
105 63 235 77 290 15 55 28 107 30 115 2 8 14 56 28 105 30 108 97 358 102
383 4 14 67 255 91 342 26 97 126 478 129 490 4 18 23 92 110 415 37 138 68
258 70 268 2 10 7 27 10 37 26 82 27 207 3 295 -44 159 -158 300 -298 367 -59
28 -523 161 -710 203 -8 2 -51 13 -95 25 -44 12 -90 24 -102 26 -12 2 -34 9
-48 14 -15 6 -30 10 -33 10 -4 0 -8 -89 -7 -197z"/>
<path d="M3956 3638 c-18 -29 -88 -138 -155 -242 -66 -104 -121 -192 -121
-196 0 -4 21 -13 48 -20 26 -7 54 -14 64 -16 11 -4 26 12 50 51 29 48 36 54
58 49 14 -3 32 -7 41 -9 9 -2 35 -9 57 -16 l42 -12 -1 -57 c-1 -32 1 -63 5
-69 6 -9 30 -18 108 -37 l28 -6 -5 119 c-9 245 -23 462 -31 474 -6 10 -106 39
-133 39 -15 0 -32 -16 -55 -52z"/>
</g>
</svg>
